Neuton-light.ufo
<glyph name="quotedbl" format="1">
  <advance width="540"/>
  <unicode hex="0022"/>
  <outline>
    <contour>
      <point x="126.5" y="1607" type="line" smooth="no"/>
      <point x="306" y="1592.5" type="line" smooth="no"/>
      <point x="261.5" y="1109" type="line" smooth="no"/>
      <point x="172" y="1099.5" type="line" smooth="no"/>
    </contour>
    <contour>
      <point x="356.5" y="1607" type="line" smooth="no"/>
      <point x="537.5" y="1592.5" type="line" smooth="no"/>
      <point x="493" y="1109" type="line" smooth="no"/>
      <point x="402" y="1099.5" type="line" smooth="no"/>
    </contour>
  </outline>
</glyph>
<glyph name="percent" format="1">
  <advance width="2145"/>
  <unicode hex="0025"/>
  <outline>
    <contour>
      <point x="68.5" y="1109" type="curve" smooth="yes"/>
      <point x="68.5" y="1318"/>
      <point x="215" y="1496"/>
      <point x="367" y="1496" type="curve" smooth="yes"/>
      <point x="389" y="1496"/>
      <point x="405" y="1495"/>
      <point x="412" y="1492" type="curve" smooth="no"/>
      <point x="412.5" y="1422" type="line" smooth="no"/>
      <point x="394.5" y="1435"/>
      <point x="386" y="1441"/>
      <point x="363" y="1441" type="curve" smooth="yes"/>
      <point x="261.5" y="1441"/>
      <point x="226.5" y="1250"/>
      <point x="226.5" y="1109" type="curve" smooth="yes"/>
      <point x="226.5" y="964"/>
      <point x="274" y="786"/>
      <point x="366" y="786" type="curve" smooth="yes"/>
      <point x="470" y="786"/>
      <point x="510.5" y="961"/>
      <point x="510.5" y="1109" type="curve" smooth="yes"/>
      <point x="510.5" y="1285"/>
      <point x="483" y="1403.5"/>
      <point x="453.5" y="1476" type="curve" smooth="no"/>
      <point x="1103.5" y="1494" type="line" smooth="no"/>
      <point x="1115.5" y="1409" type="line" smooth="no"/>
      <point x="591" y="1419" type="line" smooth="no"/>
      <point x="640" y="1361"/>
      <point x="668.5" y="1171"/>
      <point x="668.5" y="1109" type="curve" smooth="yes"/>
      <point x="668.5" y="896"/>
      <point x="511" y="721"/>
      <point x="366" y="721" type="curve" smooth="yes"/>
      <point x="209" y="721"/>
      <point x="68.5" y="872"/>
    </contour>
    <contour>
      <point x="202" y="-32" type="line" smooth="no"/>
      <point x="666.5" y="725.5" type="line" smooth="no"/>
      <point x="1103.5" y="1494" type="line" smooth="no"/>
      <point x="1265" y="1489.5" type="line" smooth="no"/>
      <point x="1262.5" y="1469" type="line" smooth="no"/>
      <point x="811" y="729.5" type="line" smooth="no"/>
      <point x="382" y="-49" type="line" smooth="no"/>
    </contour>
    <contour>
      <point x="804" y="342" type="curve" smooth="yes"/>
      <point x="804" y="551"/>
      <point x="950.5" y="729"/>
      <point x="1102.5" y="729" type="curve" smooth="yes"/>
      <point x="1277.5" y="729"/>
      <point x="1404" y="559"/>
      <point x="1404" y="338" type="curve" smooth="yes"/>
      <point x="1404" y="129"/>
      <point x="1250.5" y="-44"/>
      <point x="1105.5" y="-44" type="curve" smooth="yes"/>
      <point x="948.5" y="-44"/>
      <point x="804" y="107"/>
    </contour>
    <contour>
      <point x="963" y="342" type="curve" smooth="yes"/>
      <point x="963" y="197"/>
      <point x="1013.5" y="20"/>
      <point x="1105.5" y="20" type="curve" smooth="yes"/>
      <point x="1209.5" y="20"/>
      <point x="1248" y="195"/>
      <point x="1248" y="345" type="curve" smooth="yes"/>
      <point x="1248" y="493"/>
      <point x="1196.5" y="674"/>
      <point x="1102.5" y="674" type="curve" smooth="yes"/>
      <point x="997.5" y="674"/>
      <point x="963" y="483"/>
    </contour>
  </outline>
</glyph>
<glyph name="quotesingle" format="1">
  <advance width="412"/>
  <unicode hex="0027"/>
  <outline>
    <contour>
      <point x="137.5" y="1607" type="line" smooth="no"/>
      <point x="317.5" y="1592.5" type="line" smooth="no"/>
      <point x="272.5" y="1109" type="line" smooth="no"/>
      <point x="183" y="1099.5" type="line" smooth="no"/>
    </contour>
  </outline>
</glyph>
<glyph name="plus" format="1">
  <advance width="839"/>
  <unicode hex="002b"/>
  <outline>
    <contour>
      <point x="107" y="515" type="line" smooth="no"/>
      <point x="122" y="620" type="line" smooth="no"/>
      <point x="379.5" y="620" type="line" smooth="no"/>
      <point x="379.5" y="915" type="line" smooth="no"/>
      <point x="488" y="900" type="line" smooth="no"/>
      <point x="490" y="620" type="line" smooth="no"/>
      <point x="761.5" y="620" type="line" smooth="no"/>
      <point x="747" y="515" type="line" smooth="no"/>
      <point x="490" y="515" type="line" smooth="no"/>
      <point x="492" y="214" type="line" smooth="no"/>
      <point x="379.5" y="229" type="line" smooth="no"/>
      <point x="379.5" y="515" type="line" smooth="no"/>
    </contour>
  </outline>
</glyph>
<glyph name="comma" format="1">
  <advance width="490"/>
  <unicode hex="002c"/>
  <outline>
    <contour>
      <point x="67" y="-296" type="line" smooth="no"/>
      <point x="236" y="-240"/>
      <point x="289" y="-151.5"/>
      <point x="289" y="-62" type="curve" smooth="yes"/>
      <point x="289" y="26"/>
      <point x="229.5" y="91.5"/>
      <point x="150" y="91.5" type="curve" smooth="yes"/>
      <point x="138.5" y="91.5"/>
      <point x="126" y="90.5"/>
      <point x="114.5" y="87.5" type="curve" smooth="no"/>
      <point x="108" y="105.5"/>
      <point x="104.5" y="119"/>
      <point x="104.5" y="138.5" type="curve" smooth="yes"/>
      <point x="104.5" y="222"/>
      <point x="172" y="269"/>
      <point x="238" y="269" type="curve" smooth="yes"/>
      <point x="328" y="269"/>
      <point x="434.5" y="190"/>
      <point x="434.5" y="11.5" type="curve" smooth="yes"/>
      <point x="434.5" y="-104"/>
      <point x="380" y="-283"/>
      <point x="88.5" y="-367" type="curve" smooth="no"/>
    </contour>
  </outline>
</glyph>
<glyph name="period" format="1">
  <advance width="483"/>
  <unicode hex="002e"/>
  <outline>
    <contour>
      <point x="134.5" y="100" type="curve" smooth="yes"/>
      <point x="134.5" y="178.5"/>
      <point x="180" y="229.5"/>
      <point x="246" y="229.5" type="curve" smooth="yes"/>
      <point x="312.5" y="229.5"/>
      <point x="360" y="177.5"/>
      <point x="360" y="98.5" type="curve" smooth="yes"/>
      <point x="360" y="16"/>
      <point x="315.5" y="-39.5"/>
      <point x="246.5" y="-39.5" type="curve" smooth="yes"/>
      <point x="177.5" y="-39.5"/>
      <point x="134.5" y="19"/>
    </contour>
  </outline>
</glyph>
<glyph name="slash" format="1">
  <advance width="753"/>
  <unicode hex="002f"/>
  <outline>
    <contour>
      <point x="43.5" y="-445" type="line" smooth="no"/>
      <point x="614" y="1527.5" type="line" smooth="no"/>
      <point x="746.5" y="1535" type="line" smooth="no"/>
      <point x="172" y="-438" type="line" smooth="no"/>
    </contour>
  </outline>
</glyph>
<glyph name="two" format="1">
  <advance width="1184"/>
  <unicode hex="0032"/>
  <outline>
    <contour>
      <point x="86" y="91.5" type="line" smooth="no"/>
      <point x="380" y="342.5" type="line" smooth="yes"/>
      <point x="664" y="585.5"/>
      <point x="825.5" y="774"/>
      <point x="825.5" y="1038.5" type="curve" smooth="yes"/>
      <point x="825.5" y="1219"/>
      <point x="758" y="1392"/>
      <point x="561" y="1392" type="curve" smooth="yes"/>
      <point x="429.5" y="1392"/>
      <point x="343.5" y="1327"/>
      <point x="307.5" y="1259" type="curve" smooth="no"/>
      <point x="256.5" y="962" type="line" smooth="no"/>
      <point x="186.5" y="972.5" type="line" smooth="no"/>
      <point x="173.5" y="1303.5" type="line" smooth="no"/>
      <point x="240.5" y="1394"/>
      <point x="430.5" y="1491"/>
      <point x="618.5" y="1491" type="curve" smooth="yes"/>
      <point x="870" y="1491"/>
      <point x="1040" y="1350"/>
      <point x="1040" y="1061" type="curve" smooth="yes"/>
      <point x="1040" y="733"/>
      <point x="731.5" y="489.5"/>
      <point x="394.5" y="222" type="curve" smooth="yes"/>
      <point x="297" y="145.5" type="line" smooth="no"/>
      <point x="912.5" y="145.5" type="line" smooth="no"/>
      <point x="1030.5" y="445.5" type="line" smooth="no"/>
      <point x="1098" y="435.5" type="line" smooth="no"/>
      <point x="1040" y="0" type="line" smooth="no"/>
      <point x="94" y="0" type="line" smooth="no"/>
    </contour>
  </outline>
</glyph>
<glyph name="five" format="1">
  <advance width="1184"/>
  <unicode hex="0035"/>
  <outline>
    <contour>
      <point x="92" y="109" type="curve" smooth="no"/>
      <point x="127.5" y="455" type="line" smooth="no"/>
      <point x="210" y="437.5" type="line" smooth="no"/>
      <point x="232" y="191.5" type="line" smooth="no"/>
      <point x="298.5" y="110"/>
      <point x="389.5" y="71"/>
      <point x="489" y="71" type="curve" smooth="yes"/>
      <point x="666.5" y="71"/>
      <point x="775.5" y="194.5"/>
      <point x="775.5" y="379.5" type="curve" smooth="yes"/>
      <point x="775.5" y="629"/>
      <point x="551.5" y="766.5"/>
      <point x="204" y="788.5" type="curve" smooth="no"/>
      <point x="345.5" y="1444" type="line" smooth="no"/>
      <point x="899.5" y="1478" type="line" smooth="no"/>
      <point x="874" y="1294" type="line" smooth="no"/>
      <point x="398.5" y="1273" type="line" smooth="no"/>
      <point x="344.5" y="950.5" type="line" smooth="no"/>
      <point x="782.5" y="922.5"/>
      <point x="957.5" y="712"/>
      <point x="957.5" y="454.5" type="curve" smooth="yes"/>
      <point x="957.5" y="202"/>
      <point x="737.5" y="-19.5"/>
      <point x="435.5" y="-19.5" type="curve" smooth="yes"/>
      <point x="306.5" y="-19.5"/>
      <point x="190" y="15"/>
    </contour>
  </outline>
</glyph>
<glyph name="six" format="1">
  <advance width="1160"/>
  <unicode hex="0036"/>
  <outline>
    <contour>
      <point x="148.5" y="520" type="curve" smooth="yes"/>
      <point x="148.5" y="934"/>
      <point x="460" y="1362"/>
      <point x="856.5" y="1497.5" type="curve" smooth="no"/>
      <point x="892" y="1435.5" type="line" smooth="no"/>
      <point x="545" y="1281.5"/>
      <point x="410" y="996.5"/>
      <point x="361" y="751.5" type="curve" smooth="no"/>
      <point x="372.5" y="751.5" type="line" smooth="no"/>
      <point x="436.5" y="811"/>
      <point x="537" y="874.5"/>
      <point x="687" y="874.5" type="curve" smooth="yes"/>
      <point x="927.5" y="874.5"/>
      <point x="1079" y="694"/>
      <point x="1079" y="446.5" type="curve" smooth="yes"/>
      <point x="1079" y="173"/>
      <point x="865.5" y="-26.5"/>
      <point x="597.5" y="-26.5" type="curve" smooth="yes"/>
      <point x="273" y="-26.5"/>
      <point x="148.5" y="231.5"/>
    </contour>
    <contour>
      <point x="348.5" y="501.5" type="curve" smooth="yes"/>
      <point x="348.5" y="245"/>
      <point x="464.5" y="54.5"/>
      <point x="616" y="54.5" type="curve" smooth="yes"/>
      <point x="811.5" y="54.5"/>
      <point x="878" y="193.5"/>
      <point x="878" y="404" type="curve" smooth="yes"/>
      <point x="878" y="595"/>
      <point x="782.5" y="763"/>
      <point x="596.5" y="763" type="curve" smooth="yes"/>
      <point x="484" y="763"/>
      <point x="388.5" y="710.5"/>
      <point x="358" y="666" type="curve" smooth="no"/>
      <point x="352" y="623.5"/>
      <point x="348.5" y="544.5"/>
    </contour>
  </outline>
</glyph>
<glyph name="seven" format="1">
  <advance width="1134"/>
  <unicode hex="0037"/>
  <outline>
    <contour>
      <point x="103" y="1022.5" type="line" smooth="no"/>
      <point x="136.5" y="1458.5" type="line" smooth="no"/>
      <point x="1078.5" y="1458.5" type="line" smooth="no"/>
      <point x="1078.5" y="1394" type="line" smooth="no"/>
      <point x="543.5" y="-41" type="line" smooth="no"/>
      <point x="347.5" y="-19.5" type="line" smooth="no"/>
      <point x="932.5" y="1291.5" type="line" smooth="no"/>
      <point x="253.5" y="1291.5" type="line" smooth="no"/>
      <point x="168.5" y="1011" type="line" smooth="no"/>
    </contour>
  </outline>
</glyph>
<glyph name="eight" format="1">
  <advance width="1158"/>
  <unicode hex="0038"/>
  <outline>
    <contour>
      <point x="156.5" y="346.5" type="curve" smooth="yes"/>
      <point x="156.5" y="485.5"/>
      <point x="247.5" y="614"/>
      <point x="440" y="728" type="curve" smooth="no"/>
      <point x="440" y="736.5" type="line" smooth="no"/>
      <point x="302" y="830.5"/>
      <point x="213" y="943.5"/>
      <point x="213" y="1106.5" type="curve" smooth="yes"/>
      <point x="213" y="1308.5"/>
      <point x="380.5" y="1482.5"/>
      <point x="619" y="1482.5" type="curve" smooth="yes"/>
      <point x="854" y="1482.5"/>
      <point x="985" y="1329"/>
      <point x="985" y="1143" type="curve" smooth="yes"/>
      <point x="985" y="975"/>
      <point x="873" y="836.5"/>
      <point x="744.5" y="770.5" type="curve" smooth="no"/>
      <point x="741.5" y="763" type="line" smooth="no"/>
      <point x="933" y="633"/>
      <point x="1036" y="530"/>
      <point x="1036" y="358.5" type="curve" smooth="yes"/>
      <point x="1036" y="132"/>
      <point x="841" y="-33"/>
      <point x="561" y="-33" type="curve" smooth="yes"/>
      <point x="334" y="-33"/>
      <point x="156.5" y="122"/>
    </contour>
    <contour>
      <point x="329" y="384.5" type="curve" smooth="yes"/>
      <point x="329" y="172.5"/>
      <point x="496" y="58"/>
      <point x="628.5" y="58" type="curve" smooth="yes"/>
      <point x="778.5" y="58"/>
      <point x="875.5" y="143.5"/>
      <point x="875.5" y="287.5" type="curve" smooth="yes"/>
      <point x="875.5" y="427.5"/>
      <point x="739.5" y="538.5"/>
      <point x="505.5" y="686.5" type="curve" smooth="no"/>
      <point x="411" y="616.5"/>
      <point x="329" y="538.5"/>
    </contour>
    <contour>
      <point x="361.5" y="1178.5" type="curve" smooth="yes"/>
      <point x="361.5" y="1054"/>
      <point x="452" y="952.5"/>
      <point x="675" y="809.5" type="curve" smooth="no"/>
      <point x="762" y="867"/>
      <point x="831" y="952"/>
      <point x="831" y="1098.5" type="curve" smooth="yes"/>
      <point x="831" y="1272.5"/>
      <point x="718" y="1407"/>
      <point x="587.5" y="1407" type="curve" smooth="yes"/>
      <point x="446" y="1407"/>
      <point x="361.5" y="1306"/>
    </contour>
  </outline>
</glyph>
<glyph name="colon" format="1">
  <advance width="507"/>
  <unicode hex="003a"/>
  <outline>
    <contour>
      <point x="148.5" y="526" type="curve" smooth="yes"/>
      <point x="148.5" y="601.5"/>
      <point x="193" y="650"/>
      <point x="257" y="650" type="curve" smooth="yes"/>
      <point x="320.5" y="650"/>
      <point x="365" y="601"/>
      <point x="365" y="525" type="curve" smooth="yes"/>
      <point x="365" y="444.5"/>
      <point x="323.5" y="389.5"/>
      <point x="257.5" y="389.5" type="curve" smooth="yes"/>
      <point x="190.5" y="389.5"/>
      <point x="148.5" y="447"/>
    </contour>
    <contour>
      <point x="150.5" y="524.5" type="curve" smooth="yes"/>
      <point x="150.5" y="601"/>
      <point x="195" y="649.5"/>
      <point x="259" y="649.5" type="curve" smooth="yes"/>
      <point x="322.5" y="649.5"/>
      <point x="367.5" y="600"/>
      <point x="367.5" y="523" type="curve" smooth="yes"/>
      <point x="367.5" y="442.5"/>
      <point x="325.5" y="388.5"/>
      <point x="259.5" y="388.5" type="curve" smooth="yes"/>
      <point x="192.5" y="388.5"/>
      <point x="150.5" y="445.5"/>
    </contour>
  </outline>
</glyph>
<glyph name="equal" format="1">
  <advance width="988"/>
  <unicode hex="003d"/>
  <outline>
    <contour>
      <point x="107" y="407" type="line" smooth="no"/>
      <point x="121" y="511.5" type="line" smooth="no"/>
      <point x="879.5" y="511.5" type="line" smooth="no"/>
      <point x="866" y="407" type="line" smooth="no"/>
    </contour>
    <contour>
      <point x="111" y="702.5" type="line" smooth="no"/>
      <point x="125" y="807.5" type="line" smooth="no"/>
      <point x="883" y="807.5" type="line" smooth="no"/>
      <point x="869.5" y="702.5" type="line" smooth="no"/>
    </contour>
  </outline>
</glyph>
<glyph name="greater" format="1">
  <advance width="860"/>
  <unicode hex="003e"/>
  <outline>
    <contour>
      <point x="82.5" y="-31" type="line" smooth="no"/>
      <point x="589.5" y="554.5" type="line" smooth="no"/>
      <point x="107" y="1127" type="line" smooth="no"/>
      <point x="151" y="1201" type="line" smooth="no"/>
      <point x="817.5" y="562" type="line" smooth="no"/>
      <point x="819" y="527" type="line" smooth="no"/>
      <point x="135" y="-101.5" type="line" smooth="no"/>
    </contour>
  </outline>
</glyph>
<glyph name="question" format="1">
  <advance width="764"/>
  <unicode hex="003f"/>
  <outline>
    <contour>
      <point x="49.5" y="1430" type="curve" smooth="yes"/>
      <point x="49.5" y="1502"/>
      <point x="140.5" y="1588"/>
      <point x="293" y="1588" type="curve" smooth="yes"/>
      <point x="498.5" y="1588"/>
      <point x="700" y="1368.5"/>
      <point x="700" y="1101" type="curve" smooth="yes"/>
      <point x="700" y="814.5"/>
      <point x="331" y="826"/>
      <point x="331" y="626.5" type="curve" smooth="yes"/>
      <point x="331" y="577.5"/>
      <point x="349.5" y="518"/>
      <point x="374" y="457.5" type="curve" smooth="no"/>
      <point x="302.5" y="437" type="line" smooth="no"/>
      <point x="258.5" y="488"/>
      <point x="202.5" y="597.5"/>
      <point x="202.5" y="697" type="curve" smooth="yes"/>
      <point x="202.5" y="969.5"/>
      <point x="584" y="944"/>
      <point x="584" y="1163" type="curve" smooth="yes"/>
      <point x="584" y="1292"/>
      <point x="477" y="1415.5"/>
      <point x="358.5" y="1415.5" type="curve" smooth="yes"/>
      <point x="264.5" y="1415.5"/>
      <point x="175.5" y="1381"/>
      <point x="122.5" y="1324" type="curve" smooth="no"/>
      <point x="85" y="1341"/>
      <point x="49.5" y="1381"/>
    </contour>
    <contour>
      <point x="236" y="98" type="curve" smooth="yes"/>
      <point x="236" y="173"/>
      <point x="286" y="227.5"/>
      <point x="347.5" y="227.5" type="curve" smooth="yes"/>
      <point x="411" y="227.5"/>
      <point x="461" y="171.5"/>
      <point x="461" y="96.5" type="curve" smooth="yes"/>
      <point x="461" y="17.5"/>
      <point x="418.5" y="-43"/>
      <point x="347.5" y="-43" type="curve" smooth="yes"/>
      <point x="279" y="-43"/>
      <point x="236" y="21"/>
    </contour>
  </outline>
</glyph>
<glyph name="B" format="1">
  <advance width="1401"/>
  <unicode hex="0042"/>
  <outline>
    <contour>
      <point x="101.5" y="0" type="line" smooth="no"/>
      <point x="113.5" y="71" type="line" smooth="no"/>
      <point x="321" y="119" type="line" smooth="no"/>
      <point x="321" y="1393" type="line" smooth="no"/>
      <point x="109.5" y="1424.5" type="line" smooth="no"/>
      <point x="121.5" y="1494" type="line" smooth="no"/>
      <point x="301" y="1520.5"/>
      <point x="479.5" y="1551"/>
      <point x="698.5" y="1551" type="curve" smooth="yes"/>
      <point x="1052" y="1551"/>
      <point x="1213" y="1379"/>
      <point x="1213" y="1193" type="curve" smooth="yes"/>
      <point x="1213" y="1045"/>
      <point x="1128" y="913"/>
      <point x="958.5" y="837" type="curve" smooth="no"/>
      <point x="958.5" y="829" type="line" smooth="no"/>
      <point x="1212" y="815"/>
      <point x="1341.5" y="632.5"/>
      <point x="1341.5" y="469" type="curve" smooth="yes"/>
      <point x="1341.5" y="232.5"/>
      <point x="1189" y="0"/>
      <point x="683.5" y="0" type="curve" smooth="yes"/>
    </contour>
    <contour>
      <point x="502" y="92.5" type="line" smooth="no"/>
      <point x="788.5" y="92.5" type="line" smooth="yes"/>
      <point x="1055.5" y="92.5"/>
      <point x="1155" y="263"/>
      <point x="1155" y="428.5" type="curve" smooth="yes"/>
      <point x="1155" y="581.5"/>
      <point x="1057.5" y="762.5"/>
      <point x="797.5" y="762.5" type="curve" smooth="yes"/>
      <point x="502" y="762.5" type="line" smooth="no"/>
    </contour>
    <contour>
      <point x="502" y="844.5" type="line" smooth="no"/>
      <point x="852" y="844.5" type="line" smooth="no"/>
      <point x="950" y="896.5"/>
      <point x="1034" y="994"/>
      <point x="1034" y="1137" type="curve" smooth="yes"/>
      <point x="1034" y="1329"/>
      <point x="909" y="1470"/>
      <point x="625.5" y="1470" type="curve" smooth="yes"/>
      <point x="595" y="1470"/>
      <point x="535" y="1468.5"/>
      <point x="502" y="1462.5" type="curve" smooth="no"/>
    </contour>
  </outline>
</glyph>
<glyph name="C" format="1">
  <advance width="1373"/>
  <unicode hex="0043"/>
  <outline>
    <contour>
      <point x="133" y="738.5" type="curve" smooth="yes"/>
      <point x="133" y="1102.5"/>
      <point x="358.5" y="1567"/>
      <point x="877" y="1567" type="curve" smooth="yes"/>
      <point x="1040.5" y="1567"/>
      <point x="1191" y="1534"/>
      <point x="1309.5" y="1444" type="curve" smooth="no"/>
      <point x="1271.5" y="1031" type="line" smooth="no"/>
      <point x="1188" y="1044" type="line" smooth="no"/>
      <point x="1144" y="1339.5" type="line" smooth="no"/>
      <point x="1087" y="1413"/>
      <point x="990" y="1474"/>
      <point x="812.5" y="1474" type="curve" smooth="yes"/>
      <point x="549.5" y="1474"/>
      <point x="334" y="1207"/>
      <point x="334" y="803" type="curve" smooth="yes"/>
      <point x="334" y="350.5"/>
      <point x="573" y="103.5"/>
      <point x="897" y="103.5" type="curve" smooth="yes"/>
      <point x="1074.5" y="103.5"/>
      <point x="1233.5" y="204"/>
      <point x="1337" y="310.5" type="curve" smooth="no"/>
      <point x="1372.5" y="241" type="line" smooth="no"/>
      <point x="1284.5" y="124"/>
      <point x="1074" y="-30.5"/>
      <point x="812" y="-30.5" type="curve" smooth="yes"/>
      <point x="434" y="-30.5"/>
      <point x="133" y="255"/>
    </contour>
  </outline>
</glyph>
<glyph name="D" format="1">
  <advance width="1658"/>
  <unicode hex="0044"/>
  <outline>
    <contour>
      <point x="99.5" y="0" type="line" smooth="no"/>
      <point x="113.5" y="71" type="line" smooth="no"/>
      <point x="324" y="124" type="line" smooth="no"/>
      <point x="324" y="1392" type="line" smooth="no"/>
      <point x="111.5" y="1424" type="line" smooth="no"/>
      <point x="123" y="1493" type="line" smooth="no"/>
      <point x="366" y="1531"/>
      <point x="552.5" y="1553"/>
      <point x="732" y="1553" type="curve" smooth="yes"/>
      <point x="1392" y="1553"/>
      <point x="1591.5" y="1187"/>
      <point x="1591.5" y="807" type="curve" smooth="yes"/>
      <point x="1591.5" y="385"/>
      <point x="1302.5" y="0"/>
      <point x="670.5" y="0" type="curve" smooth="yes"/>
    </contour>
    <contour>
      <point x="504.5" y="97.5" type="line" smooth="no"/>
      <point x="705" y="97.5" type="line" smooth="yes"/>
      <point x="1143" y="97.5"/>
      <point x="1390.5" y="369"/>
      <point x="1390.5" y="738.5" type="curve" smooth="yes"/>
      <point x="1390.5" y="1152"/>
      <point x="1153.5" y="1456.5"/>
      <point x="686.5" y="1456.5" type="curve" smooth="yes"/>
      <point x="636" y="1456.5"/>
      <point x="555" y="1457"/>
      <point x="504.5" y="1451" type="curve" smooth="no"/>
    </contour>
  </outline>
</glyph>
<glyph name="E" format="1">
  <advance width="1366"/>
  <unicode hex="0045"/>
  <outline>
    <contour>
      <point x="104" y="1462" type="line" smooth="no"/>
      <point x="114.5" y="1535" type="line" smooth="no"/>
      <point x="1287.5" y="1535" type="line" smooth="no"/>
      <point x="1249.5" y="1140.5" type="line" smooth="no"/>
      <point x="1167.5" y="1152.5" type="line" smooth="no"/>
      <point x="1130.5" y="1447" type="line" smooth="no"/>
      <point x="510" y="1447" type="line" smooth="no"/>
      <point x="510" y="823.5" type="line" smooth="no"/>
      <point x="898.5" y="823.5" type="line" smooth="no"/>
      <point x="947" y="983.5" type="line" smooth="no"/>
      <point x="1036.5" y="996.5" type="line" smooth="no"/>
      <point x="995.5" y="517" type="line" smooth="no"/>
      <point x="913.5" y="503.5" type="line" smooth="no"/>
      <point x="883" y="733" type="line" smooth="no"/>
      <point x="510" y="733" type="line" smooth="no"/>
      <point x="510" y="92.5" type="line" smooth="no"/>
      <point x="1162.5" y="92.5" type="line" smooth="no"/>
      <point x="1268.5" y="400" type="line" smooth="no"/>
      <point x="1345" y="386.5" type="line" smooth="no"/>
      <point x="1308" y="0" type="line" smooth="no"/>
      <point x="110.5" y="0" type="line" smooth="no"/>
      <point x="118.5" y="71" type="line" smooth="no"/>
      <point x="326.5" y="119" type="line" smooth="no"/>
      <point x="326.5" y="1420" type="line" smooth="no"/>
    </contour>
  </outline>
</glyph>
<glyph name="F" format="1">
  <advance width="1386"/>
  <unicode hex="0046"/>
  <outline>
    <contour>
      <point x="99.5" y="1462" type="line" smooth="no"/>
      <point x="110" y="1535" type="line" smooth="no"/>
      <point x="1282" y="1535" type="line" smooth="no"/>
      <point x="1236.5" y="1138" type="line" smooth="no"/>
      <point x="1152" y="1151" type="line" smooth="no"/>
      <point x="1118" y="1447" type="line" smooth="no"/>
      <point x="504.5" y="1447" type="line" smooth="no"/>
      <point x="504.5" y="804" type="line" smooth="no"/>
      <point x="888.5" y="804" type="line" smooth="no"/>
      <point x="938.5" y="964.5" type="line" smooth="no"/>
      <point x="1026.5" y="977.5" type="line" smooth="no"/>
      <point x="991" y="496.5" type="line" smooth="no"/>
      <point x="905.5" y="482.5" type="line" smooth="no"/>
      <point x="875.5" y="714.5" type="line" smooth="no"/>
      <point x="504.5" y="714.5" type="line" smooth="no"/>
      <point x="503" y="118.5" type="line" smooth="no"/>
      <point x="800.5" y="84.5" type="line" smooth="no"/>
      <point x="785.5" y="0" type="line" smooth="no"/>
      <point x="106" y="0" type="line" smooth="no"/>
      <point x="112.5" y="71" type="line" smooth="no"/>
      <point x="321" y="119" type="line" smooth="no"/>
      <point x="321" y="1420" type="line" smooth="no"/>
    </contour>
  </outline>
</glyph>
<glyph name="J" format="1">
  <advance width="758"/>
  <unicode hex="004a"/>
  <outline>
    <contour>
      <point x="23" y="-319.5" type="line" smooth="no"/>
      <point x="221.5" y="-141"/>
      <point x="325.5" y="29"/>
      <point x="325.5" y="258" type="curve" smooth="yes"/>
      <point x="326" y="1423" type="line" smooth="no"/>
      <point x="101.5" y="1464" type="line" smooth="no"/>
      <point x="110.5" y="1535" type="line" smooth="no"/>
      <point x="731" y="1535" type="line" smooth="no"/>
      <point x="721" y="1464" type="line" smooth="no"/>
      <point x="511" y="1426" type="line" smooth="no"/>
      <point x="508.5" y="459.5" type="line" smooth="yes"/>
      <point x="506.5" y="-33.5"/>
      <point x="402" y="-178"/>
      <point x="70.5" y="-401.5" type="curve" smooth="no"/>
    </contour>
  </outline>
</glyph>
<glyph name="L" format="1">
  <advance width="1343"/>
  <unicode hex="004c"/>
  <outline>
    <contour>
      <point x="116.5" y="0" type="line" smooth="no"/>
      <point x="125.5" y="71" type="line" smooth="no"/>
      <point x="332" y="119" type="line" smooth="no"/>
      <point x="332" y="1416" type="line" smooth="no"/>
      <point x="110" y="1462.5" type="line" smooth="no"/>
      <point x="121" y="1534.5" type="line" smooth="no"/>
      <point x="740.5" y="1534.5" type="line" smooth="no"/>
      <point x="732" y="1462.5" type="line" smooth="no"/>
      <point x="515.5" y="1420.5" type="line" smooth="no"/>
      <point x="515.5" y="92.5" type="line" smooth="no"/>
      <point x="1117" y="92.5" type="line" smooth="no"/>
      <point x="1245.5" y="421" type="line" smooth="no"/>
      <point x="1325.5" y="408" type="line" smooth="no"/>
      <point x="1282.5" y="0" type="line" smooth="no"/>
    </contour>
  </outline>
</glyph>
<glyph name="Q" format="1">
  <advance width="1659"/>
  <unicode hex="0051"/>
  <outline>
    <contour>
      <point x="137.5" y="757.5" type="curve" smooth="yes"/>
      <point x="137.5" y="1233"/>
      <point x="441" y="1571"/>
      <point x="909" y="1571" type="curve" smooth="yes"/>
      <point x="1340.5" y="1571"/>
      <point x="1586.5" y="1215"/>
      <point x="1586.5" y="775.5" type="curve" smooth="yes"/>
      <point x="1586.5" y="427"/>
      <point x="1379.5" y="75"/>
      <point x="1006" y="-11.5" type="curve" smooth="no"/>
      <point x="1112" y="-246"/>
      <point x="1248.5" y="-324.5"/>
      <point x="1544" y="-363" type="curve" smooth="no"/>
      <point x="1542.5" y="-381.5"/>
      <point x="1538.5" y="-423"/>
      <point x="1532.5" y="-437.5" type="curve" smooth="no"/>
      <point x="1473.5" y="-465.5"/>
      <point x="1399" y="-474.5"/>
      <point x="1329.5" y="-474.5" type="curve" smooth="yes"/>
      <point x="1109" y="-474.5"/>
      <point x="936.5" y="-287.5"/>
      <point x="904.5" y="-26.5" type="curve" smooth="no"/>
      <point x="883" y="-30.5"/>
      <point x="840.5" y="-33"/>
      <point x="815" y="-33" type="curve" smooth="yes"/>
      <point x="419" y="-33"/>
      <point x="137.5" y="316.5"/>
    </contour>
    <contour>
      <point x="330.5" y="826" type="curve" smooth="yes"/>
      <point x="330.5" y="454"/>
      <point x="529.5" y="74.5"/>
      <point x="937.5" y="58" type="curve" smooth="no"/>
      <point x="1247.5" y="127"/>
      <point x="1392.5" y="411.5"/>
      <point x="1392.5" y="701" type="curve" smooth="yes"/>
      <point x="1392.5" y="1117.5"/>
      <point x="1183.5" y="1471.5"/>
      <point x="844" y="1471.5" type="curve" smooth="yes"/>
      <point x="515.5" y="1471.5"/>
      <point x="330.5" y="1209.5"/>
    </contour>
  </outline>
</glyph>
<glyph name="R" format="1">
  <advance width="1475"/>
  <unicode hex="0052"/>
  <outline>
    <contour>
      <point x="130" y="0" type="line" smooth="no"/>
      <point x="140.5" y="71" type="line" smooth="no"/>
      <point x="340.5" y="119" type="line" smooth="no"/>
      <point x="340.5" y="1390.5" type="line" smooth="no"/>
      <point x="136" y="1422" type="line" smooth="no"/>
      <point x="147.5" y="1491.5" type="line" smooth="no"/>
      <point x="330" y="1520.5"/>
      <point x="508" y="1546.5"/>
      <point x="691" y="1546.5" type="curve" smooth="yes"/>
      <point x="1009" y="1546.5"/>
      <point x="1247.5" y="1438.5"/>
      <point x="1247.5" y="1174" type="curve" smooth="yes"/>
      <point x="1247.5" y="1011"/>
      <point x="1145" y="851"/>
      <point x="900" y="746" type="curve" smooth="no"/>
      <point x="900" y="745" type="line" smooth="no"/>
      <point x="1130.5" y="415" type="line" smooth="yes"/>
      <point x="1294.5" y="179.5"/>
      <point x="1354.5" y="116"/>
      <point x="1472" y="78.5" type="curve" smooth="yes"/>
      <point x="1522" y="62.5" type="line" smooth="no"/>
      <point x="1509" y="-2" type="line" smooth="no"/>
      <point x="1456" y="-20.5"/>
      <point x="1423.5" y="-24"/>
      <point x="1377.5" y="-24" type="curve" smooth="yes"/>
      <point x="1208.5" y="-24"/>
      <point x="1094.5" y="116"/>
      <point x="985" y="302.5" type="curve" smooth="yes"/>
      <point x="761" y="683.5" type="line" smooth="no"/>
      <point x="522" y="683.5" type="line" smooth="no"/>
      <point x="522" y="118" type="line" smooth="no"/>
      <point x="768" y="79.5" type="line" smooth="no"/>
      <point x="756.5" y="0" type="line" smooth="no"/>
    </contour>
    <contour>
      <point x="522" y="774.5" type="line" smooth="no"/>
      <point x="784" y="774.5" type="line" smooth="no"/>
      <point x="924.5" y="825"/>
      <point x="1052" y="951"/>
      <point x="1052" y="1122.5" type="curve" smooth="yes"/>
      <point x="1052" y="1335"/>
      <point x="908" y="1466.5"/>
      <point x="670.5" y="1466.5" type="curve" smooth="yes"/>
      <point x="593.5" y="1466.5"/>
      <point x="522" y="1460"/>
      <point x="522" y="1460" type="curve" smooth="no"/>
    </contour>
  </outline>
</glyph>
<glyph name="S" format="1">
  <advance width="1087"/>
  <unicode hex="0053"/>
  <outline>
    <contour>
      <point x="98.5" y="146.5" type="curve" smooth="no"/>
      <point x="125.5" y="487.5" type="line" smooth="no"/>
      <point x="218" y="474" type="line" smooth="no"/>
      <point x="259" y="223" type="line" smooth="no"/>
      <point x="309" y="134"/>
      <point x="429.5" y="70.5"/>
      <point x="556.5" y="70.5" type="curve" smooth="yes"/>
      <point x="698" y="70.5"/>
      <point x="851" y="155.5"/>
      <point x="851" y="338.5" type="curve" smooth="yes"/>
      <point x="851" y="683.5"/>
      <point x="143.5" y="712"/>
      <point x="143.5" y="1157" type="curve" smooth="yes"/>
      <point x="143.5" y="1419.5"/>
      <point x="367.5" y="1567"/>
      <point x="588" y="1567" type="curve" smooth="yes"/>
      <point x="721" y="1567"/>
      <point x="852" y="1524"/>
      <point x="942.5" y="1437.5" type="curve" smooth="no"/>
      <point x="942.5" y="1432.5"/>
      <point x="909.5" y="1072"/>
      <point x="909.5" y="1072" type="curve" smooth="no"/>
      <point x="819" y="1083.5" type="line" smooth="no"/>
      <point x="787.5" y="1352" type="line" smooth="no"/>
      <point x="754.5" y="1415.5"/>
      <point x="651.5" y="1480"/>
      <point x="552" y="1480" type="curve" smooth="yes"/>
      <point x="421" y="1480"/>
      <point x="311" y="1396"/>
      <point x="311" y="1234.5" type="curve" smooth="yes"/>
      <point x="311" y="862"/>
      <point x="1032.5" y="839.5"/>
      <point x="1032.5" y="408.5" type="curve" smooth="yes"/>
      <point x="1032.5" y="150.5"/>
      <point x="803" y="-30.5"/>
      <point x="509.5" y="-30.5" type="curve" smooth="yes"/>
      <point x="331.5" y="-30.5"/>
      <point x="177.5" y="49"/>
    </contour>
  </outline>
</glyph>
<glyph name="U" format="1">
  <advance width="1692"/>
  <unicode hex="0055"/>
  <outline>
    <contour>
      <point x="75" y="1464" type="line" smooth="no"/>
      <point x="86" y="1535" type="line" smooth="no"/>
      <point x="700.5" y="1535" type="line" smooth="no"/>
      <point x="692.5" y="1464" type="line" smooth="no"/>
      <point x="483.5" y="1426" type="line" smooth="no"/>
      <point x="483.5" y="620" type="line" smooth="yes"/>
      <point x="483.5" y="231.5"/>
      <point x="666" y="90.5"/>
      <point x="928" y="90.5" type="curve" smooth="yes"/>
      <point x="1192" y="90.5"/>
      <point x="1350.5" y="249"/>
      <point x="1351" y="574.5" type="curve" smooth="yes"/>
      <point x="1352.5" y="1423" type="line" smooth="no"/>
      <point x="1124.5" y="1464" type="line" smooth="no"/>
      <point x="1134.5" y="1535" type="line" smooth="no"/>
      <point x="1691" y="1535" type="line" smooth="no"/>
      <point x="1680" y="1464" type="line" smooth="no"/>
      <point x="1475" y="1426" type="line" smooth="no"/>
      <point x="1469.5" y="620" type="line" smooth="yes"/>
      <point x="1467" y="197"/>
      <point x="1298.5" y="-33"/>
      <point x="877" y="-33" type="curve" smooth="yes"/>
      <point x="592.5" y="-33"/>
      <point x="301" y="75.5"/>
      <point x="301" y="574" type="curve" smooth="yes"/>
      <point x="301" y="1423" type="line" smooth="no"/>
    </contour>
  </outline>
</glyph>
<glyph name="Y" format="1">
  <advance width="1374"/>
  <unicode hex="0059"/>
  <outline>
    <contour>
      <point x="-10.5" y="1465.5" type="line" smooth="no"/>
      <point x="-0.5" y="1534.5" type="line" smooth="no"/>
      <point x="571" y="1534.5" type="line" smooth="no"/>
      <point x="561" y="1465.5" type="line" smooth="no"/>
      <point x="360.5" y="1425.5" type="line" smooth="no"/>
      <point x="725" y="746.5" type="line" smooth="no"/>
      <point x="1079" y="1421.5" type="line" smooth="no"/>
      <point x="852" y="1466" type="line" smooth="no"/>
      <point x="859.5" y="1535" type="line" smooth="no"/>
      <point x="1374.5" y="1535" type="line" smooth="no"/>
      <point x="1367" y="1466" type="line" smooth="no"/>
      <point x="1210" y="1426" type="line" smooth="no"/>
      <point x="781.5" y="628" type="line" smooth="no"/>
      <point x="781.5" y="112" type="line" smooth="no"/>
      <point x="994" y="78" type="line" smooth="no"/>
      <point x="983" y="0" type="line" smooth="no"/>
      <point x="387.5" y="0" type="line" smooth="no"/>
      <point x="397" y="71" type="line" smooth="no"/>
      <point x="597.5" y="119" type="line" smooth="no"/>
      <point x="597.5" y="613" type="line" smooth="no"/>
      <point x="160.5" y="1421" type="line" smooth="no"/>
    </contour>
  </outline>
</glyph>
<glyph name="bracketright" format="1">
  <advance width="588"/>
  <unicode hex="005d"/>
  <outline>
    <contour>
      <point x="30" y="-377" type="line" smooth="no"/>
      <point x="322.5" y="-352.5" type="line" smooth="no"/>
      <point x="322.5" y="1436" type="line" smooth="no"/>
      <point x="32" y="1461.5" type="line" smooth="no"/>
      <point x="41.5" y="1549" type="line" smooth="no"/>
      <point x="482.5" y="1549" type="line" smooth="no"/>
      <point x="483.5" y="-463" type="line" smooth="no"/>
      <point x="39.5" y="-462.5" type="line" smooth="no"/>
    </contour>
  </outline>
</glyph>
<glyph name="underscore" format="1">
  <advance width="1072"/>
  <unicode hex="005f"/>
  <outline>
    <contour>
      <point x="17.5" y="-163.5" type="line" smooth="no"/>
      <point x="31.5" y="-57.5" type="line" smooth="no"/>
      <point x="1053" y="-57.5" type="line" smooth="no"/>
      <point x="1041.5" y="-163.5" type="line" smooth="no"/>
    </contour>
  </outline>
</glyph>
<glyph name="grave" format="1">
  <advance width="715"/>
  <unicode hex="0060"/>
  <outline>
    <contour>
      <point x="185" y="2048.5" type="line" smooth="no"/>
      <point x="313.5" y="2095" type="line" smooth="no"/>
      <point x="477" y="1681.5" type="line" smooth="no"/>
      <point x="414" y="1643.5" type="line" smooth="no"/>
    </contour>
  </outline>
</glyph>
<glyph name="a" format="1">
  <advance width="1046"/>
  <unicode hex="0061"/>
  <outline>
    <contour>
      <point x="114.5" y="208" type="curve" smooth="yes"/>
      <point x="114.5" y="399"/>
      <point x="278" y="556"/>
      <point x="684" y="593.5" type="curve" smooth="no"/>
      <point x="684" y="652" type="line" smooth="yes"/>
      <point x="684" y="864.5"/>
      <point x="638" y="1006"/>
      <point x="457.5" y="1006" type="curve" smooth="yes"/>
      <point x="330" y="1006"/>
      <point x="311" y="892"/>
      <point x="292.5" y="741" type="curve" smooth="no"/>
      <point x="233.5" y="741"/>
      <point x="156.5" y="756.5"/>
      <point x="156.5" y="845.5" type="curve" smooth="yes"/>
      <point x="156.5" y="976"/>
      <point x="377.5" y="1096.5"/>
      <point x="547" y="1096.5" type="curve" smooth="yes"/>
      <point x="752.5" y="1096.5"/>
      <point x="840" y="977"/>
      <point x="840" y="716.5" type="curve" smooth="yes"/>
      <point x="840" y="283.5" type="line" smooth="yes"/>
      <point x="840" y="170"/>
      <point x="852.5" y="109"/>
      <point x="963.5" y="90" type="curve" smooth="yes"/>
      <point x="1034.5" y="76.5" type="line" smooth="no"/>
      <point x="1023.5" y="2" type="line" smooth="no"/>
      <point x="982" y="-7.5"/>
      <point x="939" y="-22"/>
      <point x="877" y="-22" type="curve" smooth="yes"/>
      <point x="755.5" y="-22"/>
      <point x="704.5" y="62.5"/>
      <point x="704.5" y="143.5" type="curve" smooth="yes"/>
      <point x="704.5" y="161" type="line" smooth="no"/>
      <point x="694.5" y="161" type="line" smooth="no"/>
      <point x="664.5" y="91"/>
      <point x="550.5" y="-30.5"/>
      <point x="363.5" y="-30.5" type="curve" smooth="yes"/>
      <point x="233" y="-30.5"/>
      <point x="114.5" y="56.5"/>
    </contour>
    <contour>
      <point x="283.5" y="255" type="curve" smooth="yes"/>
      <point x="283.5" y="173.5"/>
      <point x="339.5" y="87"/>
      <point x="439.5" y="87" type="curve" smooth="yes"/>
      <point x="541.5" y="87"/>
      <point x="635" y="158.5"/>
      <point x="684" y="230" type="curve" smooth="no"/>
      <point x="684" y="530.5" type="line" smooth="no"/>
      <point x="426.5" y="486"/>
      <point x="283.5" y="412"/>
    </contour>
  </outline>
</glyph>
<glyph name="b" format="1">
  <advance width="1186"/>
  <unicode hex="0062"/>
  <outline>
    <contour>
      <point x="22" y="1469.5" type="line" smooth="no"/>
      <point x="33.5" y="1536" type="line" smooth="no"/>
      <point x="352" y="1560.5" type="line" smooth="no"/>
      <point x="370.5" y="1541" type="line" smooth="no"/>
      <point x="370.5" y="1032" type="line" smooth="no"/>
      <point x="352.5" y="904" type="line" smooth="no"/>
      <point x="367" y="904" type="line" smooth="no"/>
      <point x="464.5" y="1013.5"/>
      <point x="585.5" y="1093.5"/>
      <point x="724.5" y="1093.5" type="curve" smooth="yes"/>
      <point x="963" y="1093.5"/>
      <point x="1116.5" y="886"/>
      <point x="1116.5" y="575" type="curve" smooth="yes"/>
      <point x="1116.5" y="183.5"/>
      <point x="838.5" y="-29"/>
      <point x="518" y="-29" type="curve" smooth="yes"/>
      <point x="406.5" y="-29"/>
      <point x="305" y="-0.5"/>
      <point x="211" y="60.5" type="curve" smooth="no"/>
      <point x="211" y="1418" type="line" smooth="no"/>
    </contour>
    <contour>
      <point x="370.5" y="155.5" type="line" smooth="no"/>
      <point x="421" y="105"/>
      <point x="519.5" y="76.5"/>
      <point x="626.5" y="76.5" type="curve" smooth="yes"/>
      <point x="781" y="76.5"/>
      <point x="941.5" y="225"/>
      <point x="941.5" y="501" type="curve" smooth="yes"/>
      <point x="941.5" y="758.5"/>
      <point x="863.5" y="968"/>
      <point x="641" y="968" type="curve" smooth="yes"/>
      <point x="560.5" y="968"/>
      <point x="468" y="928"/>
      <point x="370.5" y="824.5" type="curve" smooth="no"/>
    </contour>
  </outline>
</glyph>
<glyph name="e" format="1">
  <advance width="1002"/>
  <unicode hex="0065"/>
  <outline>
    <contour>
      <point x="116.5" y="517.5" type="curve" smooth="yes"/>
      <point x="116.5" y="887.5"/>
      <point x="361" y="1093.5"/>
      <point x="599.5" y="1093.5" type="curve" smooth="yes"/>
      <point x="779" y="1093.5"/>
      <point x="908" y="978.5"/>
      <point x="908" y="718" type="curve" smooth="yes"/>
      <point x="908" y="680"/>
      <point x="897" y="599.5"/>
      <point x="886.5" y="556.5" type="curve" smooth="no"/>
      <point x="290" y="549" type="line" smooth="no"/>
      <point x="295" y="316.5"/>
      <point x="400" y="96"/>
      <point x="644" y="96" type="curve" smooth="yes"/>
      <point x="649.5" y="96" type="line" smooth="yes"/>
      <point x="748.5" y="96"/>
      <point x="826.5" y="120"/>
      <point x="917" y="182" type="curve" smooth="no"/>
      <point x="940.5" y="128.5" type="line" smooth="no"/>
      <point x="856.5" y="31.5"/>
      <point x="722.5" y="-36.5"/>
      <point x="559" y="-36.5" type="curve" smooth="yes"/>
      <point x="326" y="-36.5"/>
      <point x="116.5" y="143.5"/>
    </contour>
    <contour>
      <point x="292.5" y="626" type="curve" smooth="no"/>
      <point x="725" y="653.5" type="line" smooth="no"/>
      <point x="732.5" y="674"/>
      <point x="734.5" y="726.5"/>
      <point x="734.5" y="752" type="curve" smooth="yes"/>
      <point x="734.5" y="899.5"/>
      <point x="659.5" y="998.5"/>
      <point x="538.5" y="998.5" type="curve" smooth="yes"/>
      <point x="409" y="998.5"/>
      <point x="298.5" y="875"/>
    </contour>
  </outline>
</glyph>
<glyph name="g" format="1">
  <advance width="1068"/>
  <unicode hex="0067"/>
  <outline>
    <contour>
      <point x="61.5" y="-204" type="curve" smooth="yes"/>
      <point x="61.5" y="-77.5"/>
      <point x="196.5" y="-4"/>
      <point x="271.5" y="35" type="curve" smooth="no"/>
      <point x="271.5" y="43.5" type="line" smooth="no"/>
      <point x="204.5" y="74.5"/>
      <point x="153" y="129.5"/>
      <point x="153" y="200" type="curve" smooth="yes"/>
      <point x="153" y="262"/>
      <point x="252" y="349"/>
      <point x="340.5" y="397.5" type="curve" smooth="no"/>
      <point x="340.5" y="403" type="line" smooth="no"/>
      <point x="277.5" y="426.5"/>
      <point x="154.5" y="545"/>
      <point x="154.5" y="712.5" type="curve" smooth="yes"/>
      <point x="154.5" y="917"/>
      <point x="337.5" y="1091.5"/>
      <point x="548" y="1091.5" type="curve" smooth="yes"/>
      <point x="642" y="1091.5"/>
      <point x="721" y="1058"/>
      <point x="783.5" y="1013.5" type="curve" smooth="no"/>
      <point x="802" y="1013.5"/>
      <point x="1054" y="1033.5"/>
      <point x="1054" y="1033.5" type="curve" smooth="no"/>
      <point x="1073" y="1011.5" type="line" smooth="no"/>
      <point x="1030" y="894.5" type="line" smooth="no"/>
      <point x="1015.5" y="892.5" type="line" smooth="no"/>
      <point x="841" y="942" type="line" smooth="no"/>
      <point x="838" y="928.5" type="line" smooth="no"/>
      <point x="856.5" y="897"/>
      <point x="891.5" y="800.5"/>
      <point x="891.5" y="725" type="curve" smooth="yes"/>
      <point x="891.5" y="512.5"/>
      <point x="684.5" y="359.5"/>
      <point x="503" y="359.5" type="curve" smooth="yes"/>
      <point x="454" y="359.5"/>
      <point x="402.5" y="371.5"/>
      <point x="388" y="377" type="curve" smooth="no"/>
      <point x="351.5" y="341"/>
      <point x="307.5" y="301.5"/>
      <point x="307.5" y="258.5" type="curve" smooth="yes"/>
      <point x="307.5" y="194"/>
      <point x="370" y="163"/>
      <point x="517" y="163" type="curve" smooth="yes"/>
      <point x="706.5" y="162.5" type="line" smooth="yes"/>
      <point x="904.497" y="161.995"/>
      <point x="1040.5" y="136.5"/>
      <point x="1038" y="-71" type="curve" smooth="yes"/>
      <point x="1035.34" y="-284.967"/>
      <point x="774.5" y="-477"/>
      <point x="488.5" y="-477" type="curve" smooth="yes"/>
      <point x="247" y="-477"/>
      <point x="61.5" y="-387"/>
    </contour>
    <contour>
      <point x="230" y="-142.5" type="curve" smooth="yes"/>
      <point x="230" y="-309.5"/>
      <point x="368" y="-369"/>
      <point x="570" y="-369" type="curve" smooth="yes"/>
      <point x="729.5" y="-369"/>
      <point x="879.5" y="-296"/>
      <point x="879.5" y="-132.5" type="curve" smooth="yes"/>
      <point x="879.5" y="-23"/>
      <point x="834.5" y="21.5"/>
      <point x="607.5" y="21.5" type="curve" smooth="yes"/>
      <point x="345" y="21.5" type="line" smooth="no"/>
      <point x="345" y="21.5"/>
      <point x="230" y="-18"/>
    </contour>
    <contour>
      <point x="310.5" y="739" type="curve" smooth="yes"/>
      <point x="310.5" y="580.5"/>
      <point x="415" y="442.5"/>
      <point x="537" y="442.5" type="curve" smooth="yes"/>
      <point x="646.5" y="442.5"/>
      <point x="732" y="523.5"/>
      <point x="732" y="697.5" type="curve" smooth="yes"/>
      <point x="732" y="859"/>
      <point x="649" y="1018"/>
      <point x="518.5" y="1018" type="curve" smooth="yes"/>
      <point x="373" y="1018"/>
      <point x="310.5" y="900.5"/>
    </contour>
  </outline>
</glyph>
<glyph name="h" format="1">
  <advance width="1291"/>
  <unicode hex="0068"/>
  <outline>
    <contour>
      <point x="67.5" y="0" type="line" smooth="no"/>
      <point x="81.5" y="70" type="line" smooth="no"/>
      <point x="271.5" y="107.5" type="line" smooth="no"/>
      <point x="271.5" y="1424" type="line" smooth="no"/>
      <point x="78" y="1475.5" type="line" smooth="no"/>
      <point x="89" y="1542" type="line" smooth="no"/>
      <point x="414.5" y="1567.5" type="line" smooth="no"/>
      <point x="434.5" y="1547" type="line" smooth="no"/>
      <point x="434.5" y="1034.5" type="line" smooth="no"/>
      <point x="418" y="904" type="line" smooth="no"/>
      <point x="428" y="904" type="line" smooth="no"/>
      <point x="525" y="1010"/>
      <point x="660.5" y="1099"/>
      <point x="802.5" y="1099" type="curve" smooth="yes"/>
      <point x="973.5" y="1099"/>
      <point x="1090" y="1006"/>
      <point x="1090" y="725" type="curve" smooth="yes"/>
      <point x="1090" y="105.5" type="line" smooth="no"/>
      <point x="1266" y="72" type="line" smooth="no"/>
      <point x="1255" y="0" type="line" smooth="no"/>
      <point x="747" y="0" type="line" smooth="no"/>
      <point x="758.5" y="66" type="line" smooth="no"/>
      <point x="927.5" y="105.5" type="line" smooth="no"/>
      <point x="931.5" y="692.5" type="line" smooth="no"/>
      <point x="931.5" y="700.5" type="line" smooth="yes"/>
      <point x="931.5" y="898.5"/>
      <point x="829" y="966"/>
      <point x="717" y="966" type="curve" smooth="yes"/>
      <point x="606.5" y="966"/>
      <point x="521.5" y="922"/>
      <point x="434.5" y="826.5" type="curve" smooth="no"/>
      <point x="434.5" y="107.5" type="line" smooth="no"/>
      <point x="612.5" y="71.5" type="line" smooth="no"/>
      <point x="601" y="0" type="line" smooth="no"/>
    </contour>
  </outline>
</glyph>
<glyph name="i" format="1">
  <advance width="685"/>
  <unicode hex="0069"/>
  <outline>
    <contour>
      <point x="99" y="0" type="line" smooth="no"/>
      <point x="114" y="68" type="line" smooth="no"/>
      <point x="300" y="107.5" type="line" smooth="no"/>
      <point x="300" y="937" type="line" smooth="no"/>
      <point x="112" y="988.5" type="line" smooth="no"/>
      <point x="122" y="1052.5" type="line" smooth="no"/>
      <point x="441.5" y="1079" type="line" smooth="no"/>
      <point x="461.5" y="1057.5" type="line" smooth="no"/>
      <point x="461.5" y="107.5" type="line" smooth="no"/>
      <point x="659" y="70" type="line" smooth="no"/>
      <point x="645" y="0" type="line" smooth="no"/>
    </contour>
    <contour>
      <point x="261" y="1473" type="curve" smooth="yes"/>
      <point x="261" y="1551.5"/>
      <point x="308" y="1601.5"/>
      <point x="373" y="1601.5" type="curve" smooth="yes"/>
      <point x="439.5" y="1601.5"/>
      <point x="487.5" y="1550.5"/>
      <point x="487.5" y="1471.5" type="curve" smooth="yes"/>
      <point x="487.5" y="1389"/>
      <point x="442.5" y="1333"/>
      <point x="373.5" y="1333" type="curve" smooth="yes"/>
      <point x="304.5" y="1333"/>
      <point x="261" y="1392"/>
    </contour>
  </outline>
</glyph>
<glyph name="n" format="1">
  <advance width="1322"/>
  <unicode hex="006e"/>
  <outline>
    <contour>
      <point x="97" y="0" type="line" smooth="no"/>
      <point x="107" y="64" type="line" smooth="no"/>
      <point x="295.5" y="105.5" type="line" smooth="no"/>
      <point x="295.5" y="931" type="line" smooth="no"/>
      <point x="105" y="980" type="line" smooth="no"/>
      <point x="113" y="1044" type="line" smooth="no"/>
      <point x="441" y="1081" type="line" smooth="no"/>
      <point x="455.5" y="1063" type="line" smooth="no"/>
      <point x="442.5" y="900" type="line" smooth="no"/>
      <point x="453" y="900" type="line" smooth="no"/>
      <point x="523" y="987"/>
      <point x="672" y="1098"/>
      <point x="836.5" y="1098" type="curve" smooth="yes"/>
      <point x="1006" y="1098"/>
      <point x="1121.5" y="985"/>
      <point x="1121.5" y="740.5" type="curve" smooth="yes"/>
      <point x="1121.5" y="105.5" type="line" smooth="no"/>
      <point x="1295" y="71.5" type="line" smooth="no"/>
      <point x="1287" y="0" type="line" smooth="no"/>
      <point x="777" y="0" type="line" smooth="no"/>
      <point x="787" y="64" type="line" smooth="no"/>
      <point x="960" y="105.5" type="line" smooth="no"/>
      <point x="960" y="701" type="line" smooth="yes"/>
      <point x="960" y="890"/>
      <point x="863.5" y="963.5"/>
      <point x="750" y="963.5" type="curve" smooth="yes"/>
      <point x="632.5" y="963.5"/>
      <point x="553" y="923"/>
      <point x="457" y="827" type="curve" smooth="no"/>
      <point x="457" y="105.5" type="line" smooth="no"/>
      <point x="636.5" y="71" type="line" smooth="no"/>
      <point x="624" y="0" type="line" smooth="no"/>
    </contour>
  </outline>
</glyph>
<glyph name="o" format="1">
  <advance width="1165"/>
  <unicode hex="006f"/>
  <outline>
    <contour>
      <point x="116" y="507.5" type="curve" smooth="yes"/>
      <point x="116" y="881.5"/>
      <point x="356" y="1099.5"/>
      <point x="632" y="1099.5" type="curve" smooth="yes"/>
      <point x="918.5" y="1099.5"/>
      <point x="1095.5" y="857"/>
      <point x="1095.5" y="542" type="curve" smooth="yes"/>
      <point x="1095.5" y="197.5"/>
      <point x="871" y="-33"/>
      <point x="601" y="-33" type="curve" smooth="yes"/>
      <point x="307.5" y="-33"/>
      <point x="116" y="187"/>
    </contour>
    <contour>
      <point x="290.5" y="595.5" type="curve" smooth="yes"/>
      <point x="290.5" y="322.5"/>
      <point x="407" y="66.5"/>
      <point x="644" y="66.5" type="curve" smooth="yes"/>
      <point x="821" y="66.5"/>
      <point x="921" y="253"/>
      <point x="921" y="468.5" type="curve" smooth="yes"/>
      <point x="921" y="717"/>
      <point x="810" y="994"/>
      <point x="579" y="994" type="curve" smooth="yes"/>
      <point x="393" y="994"/>
      <point x="290.5" y="812"/>
    </contour>
  </outline>
</glyph>
<glyph name="r" format="1">
  <advance width="911"/>
  <unicode hex="0072"/>
  <outline>
    <contour>
      <point x="94" y="-0.5" type="line" smooth="no"/>
      <point x="103.5" y="64" type="line" smooth="no"/>
      <point x="294.5" y="105.5" type="line" smooth="no"/>
      <point x="294.5" y="934" type="line" smooth="no"/>
      <point x="97.5" y="982" type="line" smooth="no"/>
      <point x="108" y="1046" type="line" smooth="no"/>
      <point x="428.5" y="1081.5" type="line" smooth="no"/>
      <point x="448.293" y="1061" type="line" smooth="no"/>
      <point x="431" y="759" type="line" smooth="no"/>
      <point x="447.5" y="759" type="line" smooth="no"/>
      <point x="507" y="972.5"/>
      <point x="624.5" y="1103.5"/>
      <point x="744" y="1103.5" type="curve" smooth="yes"/>
      <point x="830.255" y="1103.5"/>
      <point x="881.227" y="1048.97"/>
      <point x="881.227" y="985.534" type="curve" smooth="yes"/>
      <point x="881.227" y="945.323"/>
      <point x="853.109" y="901.373"/>
      <point x="804.5" y="868" type="curve" smooth="no"/>
      <point x="762.5" y="911"/>
      <point x="721" y="932.5"/>
      <point x="672.5" y="932.5" type="curve" smooth="yes"/>
      <point x="571.5" y="932.5"/>
      <point x="482.5" y="772"/>
      <point x="455" y="572" type="curve" smooth="no"/>
      <point x="455" y="108.5" type="line" smooth="no"/>
      <point x="739.5" y="75.5" type="line" smooth="no"/>
      <point x="729" y="-0.5" type="line" smooth="no"/>
    </contour>
  </outline>
</glyph>
<glyph name="t" format="1">
  <advance width="790"/>
  <unicode hex="0074"/>
  <outline>
    <contour>
      <point x="81.5" y="951" type="line" smooth="no"/>
      <point x="81.5" y="1001" type="line" smooth="no"/>
      <point x="205" y="1056"/>
      <point x="283.5" y="1164.5"/>
      <point x="345.5" y="1317.5" type="curve" smooth="no"/>
      <point x="404" y="1317.5" type="line" smooth="no"/>
      <point x="404" y="1036" type="line" smooth="no"/>
      <point x="752.5" y="1036" type="line" smooth="no"/>
      <point x="742.5" y="948" type="line" smooth="no"/>
      <point x="402" y="948" type="line" smooth="no"/>
      <point x="398.5" y="391.5" type="line" smooth="no"/>
      <point x="398.5" y="383" type="line" smooth="yes"/>
      <point x="398.5" y="176"/>
      <point x="452.5" y="120.5"/>
      <point x="569" y="120.5" type="curve" smooth="yes"/>
      <point x="660.5" y="120.5"/>
      <point x="760" y="201"/>
      <point x="760" y="201" type="curve" smooth="no"/>
      <point x="783" y="147" type="line" smooth="no"/>
      <point x="709.5" y="41.5"/>
      <point x="593" y="-29"/>
      <point x="469" y="-29" type="curve" smooth="yes"/>
      <point x="317.5" y="-29"/>
      <point x="233.5" y="65.5"/>
      <point x="233.5" y="310" type="curve" smooth="yes"/>
      <point x="233.5" y="348.5" type="line" smooth="no"/>
      <point x="237.5" y="951" type="line" smooth="no"/>
    </contour>
  </outline>
</glyph>
<glyph name="w" format="1">
  <advance width="1526"/>
  <unicode hex="0077"/>
  <outline>
    <contour>
      <point x="27" y="996.5" type="line" smooth="no"/>
      <point x="36" y="1065" type="line" smooth="no"/>
      <point x="508.5" y="1065" type="line" smooth="no"/>
      <point x="500" y="998.5" type="line" smooth="no"/>
      <point x="333.5" y="958" type="line" smooth="no"/>
      <point x="482.5" y="444.5" type="line" smooth="no"/>
      <point x="527.5" y="250.5" type="line" smooth="no"/>
      <point x="728.5" y="985" type="line" smooth="no"/>
      <point x="870" y="1007.5" type="line" smooth="no"/>
      <point x="1039.5" y="425.5" type="line" smooth="no"/>
      <point x="1080" y="238" type="line" smooth="no"/>
      <point x="1278" y="956" type="line" smooth="no"/>
      <point x="1092" y="996.5" type="line" smooth="no"/>
      <point x="1100.5" y="1065" type="line" smooth="no"/>
      <point x="1540" y="1065" type="line" smooth="no"/>
      <point x="1530" y="998.5" type="line" smooth="no"/>
      <point x="1396.5" y="958" type="line" smooth="no"/>
      <point x="1123" y="-11.5" type="line" smooth="no"/>
      <point x="1018" y="-30.5" type="line" smooth="no"/>
      <point x="782.5" y="777" type="line" smooth="no"/>
      <point x="569.5" y="-11.5" type="line" smooth="no"/>
      <point x="462.5" y="-30.5" type="line" smooth="no"/>
      <point x="170.5" y="956" type="line" smooth="no"/>
    </contour>
  </outline>
</glyph>
<glyph name="x" format="1">
  <advance width="1153"/>
  <unicode hex="0078"/>
  <outline>
    <contour>
      <point x="21" y="0" type="line" smooth="no"/>
      <point x="32" y="64" type="line" smooth="no"/>
      <point x="165" y="105.5" type="line" smooth="no"/>
      <point x="493.5" y="532" type="line" smooth="no"/>
      <point x="189.5" y="966" type="line" smooth="no"/>
      <point x="44.5" y="1005.5" type="line" smooth="no"/>
      <point x="53" y="1073" type="line" smooth="no"/>
      <point x="539" y="1073" type="line" smooth="no"/>
      <point x="526.5" y="1008" type="line" smooth="no"/>
      <point x="384.5" y="968.5" type="line" smooth="no"/>
      <point x="611.5" y="649.5" type="line" smooth="no"/>
      <point x="854.5" y="963.5" type="line" smooth="no"/>
      <point x="684.5" y="1005.5" type="line" smooth="no"/>
      <point x="699" y="1073" type="line" smooth="no"/>
      <point x="1129.5" y="1073" type="line" smooth="no"/>
      <point x="1116" y="1006.5" type="line" smooth="no"/>
      <point x="987.5" y="966.5" type="line" smooth="no"/>
      <point x="678" y="566.5" type="line" smooth="no"/>
      <point x="1002" y="104" type="line" smooth="no"/>
      <point x="1142.5" y="64.5" type="line" smooth="no"/>
      <point x="1133" y="0" type="line" smooth="no"/>
      <point x="632.5" y="0" type="line" smooth="no"/>
      <point x="647.5" y="63" type="line" smooth="no"/>
      <point x="804" y="104" type="line" smooth="no"/>
      <point x="563" y="447" type="line" smooth="no"/>
      <point x="301" y="105.5" type="line" smooth="no"/>
      <point x="476" y="66" type="line" smooth="no"/>
      <point x="465" y="0" type="line" smooth="no"/>
    </contour>
  </outline>
</glyph>
<glyph name="y" format="1">
  <advance width="1155"/>
  <unicode hex="0079"/>
  <outline>
    <contour>
      <point x="37" y="-337.5" type="curve" smooth="yes"/>
      <point x="37" y="-296.5"/>
      <point x="48.5" y="-254.5"/>
      <point x="92" y="-217" type="curve" smooth="no"/>
      <point x="150" y="-262"/>
      <point x="203" y="-282.5"/>
      <point x="287" y="-282.5" type="curve" smooth="yes"/>
      <point x="356" y="-282.5"/>
      <point x="441.5" y="-239"/>
      <point x="512" y="-60.5" type="curve" smooth="yes"/>
      <point x="540.5" y="15" type="line" smooth="no"/>
      <point x="197.5" y="952" type="line" smooth="no"/>
      <point x="45" y="992.5" type="line" smooth="no"/>
      <point x="55.5" y="1062" type="line" smooth="no"/>
      <point x="528" y="1062" type="line" smooth="no"/>
      <point x="521" y="996.5" type="line" smooth="no"/>
      <point x="364.5" y="956.5" type="line" smooth="no"/>
      <point x="629.5" y="240" type="line" smooth="no"/>
      <point x="912.5" y="950.5" type="line" smooth="no"/>
      <point x="752.5" y="994" type="line" smooth="no"/>
      <point x="765.5" y="1062" type="line" smooth="no"/>
      <point x="1157" y="1062" type="line" smooth="no"/>
      <point x="1151" y="996.5" type="line" smooth="no"/>
      <point x="1026.5" y="952" type="line" smooth="no"/>
      <point x="619" y="-65.5" type="line" smooth="yes"/>
      <point x="504" y="-352.5"/>
      <point x="407.5" y="-467"/>
      <point x="216" y="-467" type="curve" smooth="yes"/>
      <point x="112.5" y="-467"/>
      <point x="37" y="-409"/>
    </contour>
  </outline>
</glyph>
<glyph name="z" format="1">
  <advance width="1059"/>
  <unicode hex="007a"/>
  <outline>
    <contour>
      <point x="118.5" y="78" type="line" smooth="no"/>
      <point x="755" y="972.5" type="line" smooth="no"/>
      <point x="280.5" y="972.5" type="line" smooth="no"/>
      <point x="210.5" y="719.5" type="line" smooth="no"/>
      <point x="141.5" y="730.5" type="line" smooth="no"/>
      <point x="154.5" y="1062" type="line" smooth="no"/>
      <point x="952.5" y="1062" type="line" smooth="no"/>
      <point x="954.5" y="997.5" type="line" smooth="no"/>
      <point x="310" y="96.5" type="line" smooth="no"/>
      <point x="819" y="96.5" type="line" smooth="no"/>
      <point x="912" y="339.5" type="line" smooth="no"/>
      <point x="975" y="332" type="line" smooth="no"/>
      <point x="937.5" y="0" type="line" smooth="no"/>
      <point x="123.5" y="0" type="line" smooth="no"/>
    </contour>
  </outline>
</glyph>
<glyph name="cent" format="1">
  <advance width="991"/>
  <unicode hex="00a2"/>
  <outline>
    <contour>
      <point x="107" y="508" type="curve" smooth="yes"/>
      <point x="107" y="874.5"/>
      <point x="332.5" y="1135"/>
      <point x="600.5" y="1135" type="curve" smooth="yes"/>
      <point x="807.5" y="1135"/>
      <point x="885" y="1034"/>
      <point x="885" y="936.5" type="curve" smooth="yes"/>
      <point x="885" y="871.5"/>
      <point x="849" y="828"/>
      <point x="767.5" y="814.5" type="curve" smooth="no"/>
      <point x="722" y="940"/>
      <point x="660" y="1040"/>
      <point x="541.5" y="1040" type="curve" smooth="yes"/>
      <point x="395" y="1040"/>
      <point x="280" y="861"/>
      <point x="280" y="600" type="curve" smooth="yes"/>
      <point x="280" y="313"/>
      <point x="412.5" y="85"/>
      <point x="639.5" y="85" type="curve" smooth="yes"/>
      <point x="761.5" y="85"/>
      <point x="850.5" y="134.5"/>
      <point x="909.5" y="182.5" type="curve" smooth="no"/>
      <point x="935.5" y="126" type="line" smooth="no"/>
      <point x="873" y="40.5"/>
      <point x="718" y="-36.5"/>
      <point x="558.5" y="-36.5" type="curve" smooth="yes"/>
      <point x="273.5" y="-36.5"/>
      <point x="107" y="212.5"/>
    </contour>
    <contour>
      <point x="463" y="1400" type="line" smooth="no"/>
      <point x="619" y="1421" type="line" smooth="no"/>
      <point x="589" y="1090" type="line" smooth="no"/>
      <point x="502" y="1090" type="line" smooth="no"/>
    </contour>
    <contour>
      <point x="476" y="-329" type="line" smooth="no"/>
      <point x="508" y="0" type="line" smooth="no"/>
      <point x="593" y="0" type="line" smooth="no"/>
      <point x="634" y="-309" type="line" smooth="no"/>
    </contour>
  </outline>
</glyph>
<glyph name="currency" format="1">
  <advance width="949"/>
  <unicode hex="00a4"/>
  <outline>
    <contour>
      <point x="103" y="892" type="line" smooth="no"/>
      <point x="186" y="973.5" type="line" smooth="no"/>
      <point x="282" y="864.5" type="line" smooth="no"/>
      <point x="335" y="909"/>
      <point x="421" y="950"/>
      <point x="481.5" y="950" type="curve" smooth="yes"/>
      <point x="548.5" y="950"/>
      <point x="637.5" y="912.5"/>
      <point x="686.5" y="876" type="curve" smooth="no"/>
      <point x="782" y="975" type="line" smooth="no"/>
      <point x="854.5" y="888" type="line" smooth="no"/>
      <point x="751.5" y="797" type="line" smooth="no"/>
      <point x="778" y="751"/>
      <point x="806" y="664.5"/>
      <point x="806" y="607" type="curve" smooth="yes"/>
      <point x="806" y="544.5"/>
      <point x="776" y="458.5"/>
      <point x="743" y="412.5" type="curve" smooth="no"/>
      <point x="857.5" y="306.5" type="line" smooth="no"/>
      <point x="772" y="226.5" type="line" smooth="no"/>
      <point x="674.5" y="337.5" type="line" smooth="no"/>
      <point x="617.5" y="303.5"/>
      <point x="529.5" y="269.5"/>
      <point x="472" y="269.5" type="curve" smooth="yes"/>
      <point x="423" y="269.5"/>
      <point x="346.5" y="299.5"/>
      <point x="296" y="330" type="curve" smooth="no"/>
      <point x="201" y="221" type="line" smooth="no"/>
      <point x="118" y="304.5" type="line" smooth="no"/>
      <point x="222.5" y="400.5" type="line" smooth="no"/>
      <point x="189.5" y="451"/>
      <point x="156.5" y="539"/>
      <point x="156.5" y="604.5" type="curve" smooth="yes"/>
      <point x="156.5" y="661.5"/>
      <point x="186" y="742"/>
      <point x="215" y="786.5" type="curve" smooth="no"/>
    </contour>
    <contour>
      <point x="267.5" y="610.5" type="curve" smooth="yes"/>
      <point x="267.5" y="467.5"/>
      <point x="352" y="371"/>
      <point x="477.5" y="371" type="curve" smooth="yes"/>
      <point x="607.5" y="371"/>
      <point x="695.5" y="465.5"/>
      <point x="695.5" y="602.5" type="curve" smooth="yes"/>
      <point x="695.5" y="749.5"/>
      <point x="608.5" y="845"/>
      <point x="476" y="845" type="curve" smooth="yes"/>
      <point x="350.5" y="845"/>
      <point x="267.5" y="750.5"/>
    </contour>
  </outline>
</glyph>
<glyph name="yen" format="1">
  <advance width="1421"/>
  <unicode hex="00a5"/>
  <outline>
    <contour>
      <point x="110.5" y="1465.5" type="line" smooth="no"/>
      <point x="120.5" y="1534.5" type="line" smooth="no"/>
      <point x="662" y="1534.5" type="line" smooth="no"/>
      <point x="653" y="1465.5" type="line" smooth="no"/>
      <point x="468" y="1425.5" type="line" smooth="no"/>
      <point x="762" y="787.5" type="line" smooth="no"/>
      <point x="1042.5" y="1420" type="line" smooth="no"/>
      <point x="831.5" y="1465.5" type="line" smooth="no"/>
      <point x="839" y="1534.5" type="line" smooth="no"/>
      <point x="1324.5" y="1534.5" type="line" smooth="no"/>
      <point x="1316.5" y="1465.5" type="line" smooth="no"/>
      <point x="1161" y="1425" type="line" smooth="no"/>
      <point x="831.5" y="713" type="line" smooth="no"/>
      <point x="1238" y="713" type="line" smooth="no"/>
      <point x="1224.5" y="623.5" type="line" smooth="no"/>
      <point x="808.5" y="623.5" type="line" smooth="no"/>
      <point x="808.5" y="416.5" type="line" smooth="no"/>
      <point x="1234.5" y="416.5" type="line" smooth="no"/>
      <point x="1221" y="326.5" type="line" smooth="no"/>
      <point x="808.5" y="326.5" type="line" smooth="no"/>
      <point x="808.5" y="111" type="line" smooth="no"/>
      <point x="1023" y="76.5" type="line" smooth="no"/>
      <point x="1011.5" y="0" type="line" smooth="no"/>
      <point x="418.5" y="0" type="line" smooth="no"/>
      <point x="428" y="69.5" type="line" smooth="no"/>
      <point x="628.5" y="118" type="line" smooth="no"/>
      <point x="628.5" y="326.5" type="line" smooth="no"/>
      <point x="226" y="326.5" type="line" smooth="no"/>
      <point x="239" y="416.5" type="line" smooth="no"/>
      <point x="628.5" y="416.5" type="line" smooth="no"/>
      <point x="628.5" y="623.5" type="line" smooth="no"/>
      <point x="230" y="623.5" type="line" smooth="no"/>
      <point x="243.5" y="713" type="line" smooth="no"/>
      <point x="605" y="713" type="line" smooth="no"/>
      <point x="280.5" y="1421" type="line" smooth="no"/>
    </contour>
  </outline>
</glyph>
<glyph name="brokenbar" format="1">
  <advance width="555"/>
  <unicode hex="00a6"/>
  <outline>
    <contour>
      <point x="238.5" y="-456.5" type="line" smooth="no"/>
      <point x="238.5" y="516.5" type="line" smooth="no"/>
      <point x="355.5" y="506.5" type="line" smooth="no"/>
      <point x="355.5" y="-469" type="line" smooth="no"/>
    </contour>
    <contour>
      <point x="238.5" y="663" type="line" smooth="no"/>
      <point x="238.5" y="1550.5" type="line" smooth="no"/>
      <point x="354" y="1540" type="line" smooth="no"/>
      <point x="351" y="652.5" type="line" smooth="no"/>
    </contour>
  </outline>
</glyph>
<glyph name="section" format="1">
  <advance width="1080"/>
  <unicode hex="00a7"/>
  <outline>
    <contour>
      <point x="93" y="-293.5" type="curve" smooth="no"/>
      <point x="119" y="47.5" type="line" smooth="no"/>
      <point x="212.5" y="35.5" type="line" smooth="no"/>
      <point x="252" y="-216.5" type="line" smooth="no"/>
      <point x="302" y="-305.5"/>
      <point x="423.5" y="-369"/>
      <point x="550.5" y="-369" type="curve" smooth="yes"/>
      <point x="692" y="-369"/>
      <point x="846" y="-283.5"/>
      <point x="846" y="-100.5" type="curve" smooth="yes"/>
      <point x="846" y="237"/>
      <point x="122.5" y="276"/>
      <point x="145" y="711" type="curve" smooth="no"/>
      <point x="573" y="455.5" type="line" smooth="yes"/>
      <point x="779" y="334.5"/>
      <point x="1025.5" y="223.5"/>
      <point x="1025.5" y="-31" type="curve" smooth="yes"/>
      <point x="1025.5" y="-289"/>
      <point x="798" y="-469.5"/>
      <point x="504.5" y="-469.5" type="curve" smooth="yes"/>
      <point x="326.5" y="-469.5"/>
      <point x="172" y="-391"/>
    </contour>
    <contour>
      <point x="139" y="1157" type="curve" smooth="yes"/>
      <point x="139" y="1419.5"/>
      <point x="362.5" y="1567"/>
      <point x="583" y="1567" type="curve" smooth="yes"/>
      <point x="716" y="1567"/>
      <point x="847" y="1524"/>
      <point x="937.5" y="1437.5" type="curve" smooth="no"/>
      <point x="937.5" y="1432.5"/>
      <point x="904.5" y="1072"/>
      <point x="904.5" y="1072" type="curve" smooth="no"/>
      <point x="814.5" y="1083.5" type="line" smooth="no"/>
      <point x="782" y="1352" type="line" smooth="no"/>
      <point x="749" y="1415.5"/>
      <point x="647" y="1480"/>
      <point x="547.5" y="1480" type="curve" smooth="yes"/>
      <point x="416.5" y="1480"/>
      <point x="305.5" y="1396"/>
      <point x="305.5" y="1234.5" type="curve" smooth="yes"/>
      <point x="305.5" y="860.5"/>
      <point x="1048.5" y="842.5"/>
      <point x="1024" y="392.5" type="curve" smooth="no"/>
      <point x="558.5" y="673" type="line" smooth="yes"/>
      <point x="363.5" y="791"/>
      <point x="139" y="907"/>
    </contour>
  </outline>
</glyph>
<glyph name="dieresis" format="1">
  <advance width="806"/>
  <unicode hex="00a8"/>
  <outline>
    <contour>
      <point x="152.5" y="1808" type="curve" smooth="yes"/>
      <point x="152.5" y="1868"/>
      <point x="189.5" y="1903"/>
      <point x="238.5" y="1903" type="curve" smooth="yes"/>
      <point x="288.5" y="1903"/>
      <point x="327" y="1868"/>
      <point x="327" y="1808" type="curve" smooth="yes"/>
      <point x="327" y="1744.5"/>
      <point x="292" y="1707"/>
      <point x="239.5" y="1707" type="curve" smooth="yes"/>
      <point x="187.5" y="1707"/>
      <point x="152.5" y="1746"/>
    </contour>
    <contour>
      <point x="483" y="1808" type="curve" smooth="yes"/>
      <point x="483" y="1868"/>
      <point x="519.5" y="1903"/>
      <point x="568.5" y="1903" type="curve" smooth="yes"/>
      <point x="618.5" y="1903"/>
      <point x="658.5" y="1868"/>
      <point x="658.5" y="1808" type="curve" smooth="yes"/>
      <point x="658.5" y="1744.5"/>
      <point x="621.5" y="1707"/>
      <point x="569" y="1707" type="curve" smooth="yes"/>
      <point x="517" y="1707"/>
      <point x="483" y="1746"/>
    </contour>
  </outline>
</glyph>
<glyph name="copyright" format="1">
  <advance width="1700"/>
  <unicode hex="00a9"/>
  <outline>
    <component base="c" xScale="0.835" yScale="0.835" xOffset="371" yOffset="356"/>
    <contour>
      <point x="88.5" y="780.5" type="curve" smooth="yes"/>
      <point x="88.5" y="1261.5"/>
      <point x="430" y="1605"/>
      <point x="847.5" y="1605" type="curve" smooth="yes"/>
      <point x="1324.5" y="1605"/>
      <point x="1626" y="1264"/>
      <point x="1626" y="784.5" type="curve" smooth="yes"/>
      <point x="1626" y="323.5"/>
      <point x="1298.5" y="-25.5"/>
      <point x="835.5" y="-25.5" type="curve" smooth="yes"/>
      <point x="384.5" y="-25.5"/>
      <point x="88.5" y="309.5"/>
    </contour>
    <contour>
      <point x="206.5" y="794.5" type="curve" smooth="yes"/>
      <point x="206.5" y="379.5"/>
      <point x="471.5" y="76"/>
      <point x="846" y="76" type="curve" smooth="yes"/>
      <point x="1221" y="76"/>
      <point x="1510.5" y="372.5"/>
      <point x="1510.5" y="772.5" type="curve" smooth="yes"/>
      <point x="1510.5" y="1191"/>
      <point x="1251.5" y="1507.5"/>
      <point x="848.5" y="1507.5" type="curve" smooth="yes"/>
      <point x="478.5" y="1507.5"/>
      <point x="206.5" y="1193.5"/>
    </contour>
  </outline>
</glyph>
<glyph name="logicalnot" format="1">
  <advance width="1149"/>
  <unicode hex="00ac"/>
  <outline>
    <contour>
      <point x="96" y="720.5" type="line" smooth="no"/>
      <point x="111" y="819" type="line" smooth="no"/>
      <point x="1030" y="819" type="line" smooth="no"/>
      <point x="1031.5" y="432.5" type="line" smooth="no"/>
      <point x="921" y="410" type="line" smooth="no"/>
      <point x="921" y="720.5" type="line" smooth="no"/>
    </contour>
  </outline>
</glyph>
<glyph name="macron" format="1">
  <advance width="824"/>
  <unicode hex="00af"/>
  <outline>
    <contour>
      <point x="133.5" y="1702" type="line" smooth="no"/>
      <point x="147" y="1796.5" type="line" smooth="no"/>
      <point x="691" y="1796.5" type="line" smooth="no"/>
      <point x="678" y="1702" type="line" smooth="no"/>
    </contour>
  </outline>
</glyph>
<glyph name="degree" format="1">
  <advance width="508"/>
  <unicode hex="00b0"/>
  <outline>
    <contour>
      <point x="54" y="1374" type="curve" smooth="yes"/>
      <point x="54" y="1487.5"/>
      <point x="147.5" y="1584.5"/>
      <point x="263" y="1584.5" type="curve" smooth="yes"/>
      <point x="381.5" y="1584.5"/>
      <point x="454" y="1501.5"/>
      <point x="454" y="1386" type="curve" smooth="yes"/>
      <point x="454" y="1274.5"/>
      <point x="372" y="1170.5"/>
      <point x="246" y="1170.5" type="curve" smooth="yes"/>
      <point x="132.5" y="1170.5"/>
      <point x="54" y="1248"/>
    </contour>
    <contour>
      <point x="135.5" y="1383" type="curve" smooth="yes"/>
      <point x="135.5" y="1308"/>
      <point x="177" y="1229"/>
      <point x="261.5" y="1229" type="curve" smooth="yes"/>
      <point x="333.5" y="1229"/>
      <point x="373" y="1284.5"/>
      <point x="373" y="1374.5" type="curve" smooth="yes"/>
      <point x="373" y="1452"/>
      <point x="330.5" y="1527"/>
      <point x="247.5" y="1527" type="curve" smooth="yes"/>
      <point x="170" y="1527"/>
      <point x="135.5" y="1452.5"/>
    </contour>
  </outline>
</glyph>
<glyph name="threesuperior" format="1">
  <advance width="557"/>
  <unicode hex="00b3"/>
  <outline>
    <contour>
      <point x="59.5" y="1227" type="curve" smooth="yes"/>
      <point x="59.5" y="1256"/>
      <point x="95" y="1267.5"/>
      <point x="109" y="1269.5" type="curve" smooth="no"/>
      <point x="115" y="1231.5"/>
      <point x="121.5" y="1194.5"/>
      <point x="166" y="1194.5" type="curve" smooth="yes"/>
      <point x="210.5" y="1194.5"/>
      <point x="233.5" y="1230.5"/>
      <point x="233.5" y="1273.5" type="curve" smooth="yes"/>
      <point x="233.5" y="1316.5"/>
      <point x="200.5" y="1363.5"/>
      <point x="154.5" y="1363.5" type="curve" smooth="yes"/>
      <point x="143" y="1363.5"/>
      <point x="123" y="1361"/>
      <point x="109" y="1361" type="curve" smooth="no"/>
      <point x="107" y="1371.5"/>
      <point x="102.5" y="1382.5"/>
      <point x="102.5" y="1394" type="curve" smooth="yes"/>
      <point x="102.5" y="1396" type="line" smooth="no"/>
      <point x="114" y="1400"/>
      <point x="218" y="1416.5"/>
      <point x="218" y="1502" type="curve" smooth="yes"/>
      <point x="218" y="1535"/>
      <point x="196" y="1565"/>
      <point x="162" y="1565" type="curve" smooth="yes"/>
      <point x="140" y="1565"/>
      <point x="114.5" y="1542"/>
      <point x="114.5" y="1479.5" type="curve" smooth="no"/>
      <point x="81.5" y="1481.5"/>
      <point x="64" y="1491.5"/>
      <point x="64" y="1516" type="curve" smooth="yes"/>
      <point x="64" y="1573"/>
      <point x="143.5" y="1606"/>
      <point x="184.5" y="1606" type="curve" smooth="yes"/>
      <point x="239.5" y="1606"/>
      <point x="278.5" y="1563.5"/>
      <point x="278.5" y="1519" type="curve" smooth="yes"/>
      <point x="278.5" y="1470"/>
      <point x="248" y="1422"/>
      <point x="207" y="1400" type="curve" smooth="no"/>
      <point x="207" y="1394" type="line" smooth="no"/>
      <point x="264.5" y="1378"/>
      <point x="298" y="1330.5"/>
      <point x="298" y="1284.5" type="curve" smooth="yes"/>
      <point x="298" y="1222"/>
      <point x="248" y="1156"/>
      <point x="173" y="1156" type="curve" smooth="yes"/>
      <point x="83" y="1156"/>
      <point x="59.5" y="1198"/>
    </contour>
  </outline>
</glyph>
<glyph name="acute" format="1">
  <advance width="700"/>
  <unicode hex="00b4"/>
  <outline>
    <contour>
      <point x="246" y="1697" type="line" smooth="no"/>
      <point x="403.5" y="2105" type="line" smooth="no"/>
      <point x="531" y="2057" type="line" smooth="no"/>
      <point x="305.5" y="1661" type="line" smooth="no"/>
    </contour>
  </outline>
</glyph>
<glyph name="cedilla" format="1">
  <advance width="446"/>
  <unicode hex="00b8"/>
  <outline>
    <contour>
      <point x="94" y="-418.5" type="line" smooth="no"/>
      <point x="165" y="-394"/>
      <point x="220.5" y="-342"/>
      <point x="220.5" y="-305.5" type="curve" smooth="yes"/>
      <point x="220.5" y="-244"/>
      <point x="166.5" y="-200.5"/>
      <point x="122" y="-157.5" type="curve" smooth="no"/>
      <point x="235" y="4" type="line" smooth="no"/>
      <point x="316.5" y="4" type="line" smooth="no"/>
      <point x="250" y="-94" type="line" smooth="no"/>
      <point x="296" y="-135"/>
      <point x="360" y="-197.5"/>
      <point x="360" y="-280" type="curve" smooth="yes"/>
      <point x="360" y="-377.5"/>
      <point x="257" y="-438"/>
      <point x="113" y="-481" type="curve" smooth="no"/>
    </contour>
  </outline>
</glyph>
<glyph name="onesuperior" format="1">
  <advance width="298"/>
  <unicode hex="00b9"/>
  <outline>
    <contour>
      <point x="55.5" y="1244.5" type="line" smooth="no"/>
      <point x="60.5" y="1273.5" type="line" smooth="no"/>
      <point x="121.5" y="1289.5" type="line" smooth="no"/>
      <point x="121.5" y="1535" type="line" smooth="no"/>
      <point x="63.5" y="1535" type="line" smooth="no"/>
      <point x="66" y="1562" type="line" smooth="no"/>
      <point x="173" y="1591" type="line" smooth="no"/>
      <point x="183.5" y="1591" type="line" smooth="no"/>
      <point x="183.5" y="1288.5" type="line" smooth="no"/>
      <point x="251" y="1276.5" type="line" smooth="no"/>
      <point x="246.5" y="1244.5" type="line" smooth="no"/>
    </contour>
  </outline>
</glyph>
<glyph name="ordmasculine" format="1">
  <advance width="569"/>
  <unicode hex="00ba"/>
  <outline>
    <contour>
      <point x="73.5" y="353.5" type="line" smooth="no"/>
      <point x="82.5" y="421" type="line" smooth="no"/>
      <point x="500" y="421" type="line" smooth="no"/>
      <point x="492" y="353.5" type="line" smooth="no"/>
    </contour>
    <contour>
      <point x="85.5" y="720" type="curve" smooth="yes"/>
      <point x="85.5" y="873"/>
      <point x="183.5" y="953.5"/>
      <point x="290.5" y="953.5" type="curve" smooth="yes"/>
      <point x="412.5" y="953.5"/>
      <point x="475.5" y="863.5"/>
      <point x="475.5" y="726.5" type="curve" smooth="yes"/>
      <point x="475.5" y="589.5"/>
      <point x="390.5" y="495.5"/>
      <point x="277" y="495.5" type="curve" smooth="yes"/>
      <point x="146.5" y="495.5"/>
      <point x="85.5" y="591.5"/>
    </contour>
    <contour>
      <point x="169.5" y="742.5" type="curve" smooth="yes"/>
      <point x="169.5" y="621.5"/>
      <point x="221.5" y="542.5"/>
      <point x="291" y="542.5" type="curve" smooth="yes"/>
      <point x="358" y="542.5"/>
      <point x="392.5" y="603.5"/>
      <point x="392.5" y="710" type="curve" smooth="yes"/>
      <point x="392.5" y="822"/>
      <point x="348" y="904.5"/>
      <point x="271.5" y="904.5" type="curve" smooth="yes"/>
      <point x="206" y="904.5"/>
      <point x="169.5" y="850.5"/>
    </contour>
  </outline>
</glyph>
<glyph name="threequarters" format="1">
  <advance width="1237"/>
  <unicode hex="00be"/>
  <outline>
    <contour>
      <point x="88" y="670" type="curve" smooth="yes"/>
      <point x="88" y="694.5"/>
      <point x="108.5" y="716.5"/>
      <point x="149.5" y="720.5" type="curve" smooth="no"/>
      <point x="153" y="699"/>
      <point x="197" y="644.5"/>
      <point x="243" y="644.5" type="curve" smooth="yes"/>
      <point x="341.5" y="644.5"/>
      <point x="361.5" y="710"/>
      <point x="361.5" y="763" type="curve" smooth="yes"/>
      <point x="361.5" y="820"/>
      <point x="304" y="889.5"/>
      <point x="211.5" y="889.5" type="curve" smooth="yes"/>
      <point x="202.5" y="889.5" type="line" smooth="no"/>
      <point x="197.5" y="921.5" type="line" smooth="no"/>
      <point x="216.5" y="927.5"/>
      <point x="338" y="974.5"/>
      <point x="338" y="1064.5" type="curve" smooth="yes"/>
      <point x="338" y="1107.5"/>
      <point x="317" y="1148.5"/>
      <point x="253" y="1148.5" type="curve" smooth="yes"/>
      <point x="200" y="1148.5"/>
      <point x="172" y="1118"/>
      <point x="153.5" y="1073.5" type="curve" smooth="no"/>
      <point x="117" y="1087.5" type="line" smooth="no"/>
      <point x="127.5" y="1140.5"/>
      <point x="194" y="1214"/>
      <point x="282.5" y="1214" type="curve" smooth="yes"/>
      <point x="357.5" y="1214"/>
      <point x="426" y="1162.5"/>
      <point x="426" y="1090.5" type="curve" smooth="yes"/>
      <point x="426" y="1010"/>
      <point x="368" y="961.5"/>
      <point x="308.5" y="939.5" type="curve" smooth="no"/>
      <point x="308.5" y="935" type="line" smooth="no"/>
      <point x="397" y="923.5"/>
      <point x="448" y="856"/>
      <point x="448" y="792" type="curve" smooth="yes"/>
      <point x="448" y="685"/>
      <point x="347" y="601"/>
      <point x="217" y="601" type="curve" smooth="yes"/>
      <point x="131.5" y="601"/>
      <point x="88" y="637"/>
    </contour>
    <contour>
      <point x="169" y="-36.5" type="line" smooth="no"/>
      <point x="1019" y="1185" type="line" smooth="no"/>
      <point x="1118.5" y="1194.5" type="line" smooth="no"/>
      <point x="271.5" y="-26.5" type="line" smooth="no"/>
    </contour>
    <contour>
      <point x="686.5" y="213" type="line" smooth="no"/>
      <point x="991.5" y="589" type="line" smooth="no"/>
      <point x="1023.5" y="580.5" type="line" smooth="no"/>
      <point x="1020" y="523"/>
      <point x="1019" y="426.5"/>
      <point x="1019" y="336.5" type="curve" smooth="yes"/>
      <point x="1019" y="236.5" type="line" smooth="no"/>
      <point x="1145" y="236.5" type="line" smooth="no"/>
      <point x="1137" y="175" type="line" smooth="no"/>
      <point x="1019" y="175" type="line" smooth="no"/>
      <point x="1019" y="7" type="line" smooth="no"/>
      <point x="938.5" y="-6" type="line" smooth="no"/>
      <point x="938.5" y="176.5" type="line" smooth="no"/>
      <point x="698" y="176.5" type="line" smooth="no"/>
    </contour>
    <contour>
      <point x="770" y="236.5" type="line" smooth="no"/>
      <point x="936" y="236.5" type="line" smooth="no"/>
      <point x="936" y="448" type="line" smooth="no"/>
    </contour>
  </outline>
</glyph>
<glyph name="AE" format="1">
  <advance width="2081"/>
  <unicode hex="00c6"/>
  <outline>
    <contour>
      <point x="0.5" y="2" type="line" smooth="no"/>
      <point x="9.5" y="73.5" type="line" smooth="no"/>
      <point x="181" y="126" type="line" smooth="no"/>
      <point x="975.5" y="1423" type="line" smooth="no"/>
      <point x="700" y="1464" type="line" smooth="no"/>
      <point x="710" y="1535" type="line" smooth="no"/>
      <point x="1973.5" y="1535" type="line" smooth="no"/>
      <point x="1934" y="1142.5" type="line" smooth="no"/>
      <point x="1854" y="1154.5" type="line" smooth="no"/>
      <point x="1815.5" y="1447" type="line" smooth="no"/>
      <point x="1216" y="1447" type="line" smooth="no"/>
      <point x="1216" y="825.5" type="line" smooth="no"/>
      <point x="1585.5" y="825.5" type="line" smooth="no"/>
      <point x="1634" y="987.5" type="line" smooth="no"/>
      <point x="1723" y="996.5" type="line" smooth="no"/>
      <point x="1682" y="519" type="line" smooth="no"/>
      <point x="1600" y="504" type="line" smooth="no"/>
      <point x="1569.5" y="735" type="line" smooth="no"/>
      <point x="1216" y="735" type="line" smooth="no"/>
      <point x="1216" y="92.5" type="line" smooth="no"/>
      <point x="1850" y="92.5" type="line" smooth="no"/>
      <point x="1956" y="402" type="line" smooth="no"/>
      <point x="2031" y="386.5" type="line" smooth="no"/>
      <point x="1994" y="0" type="line" smooth="no"/>
      <point x="806.5" y="0" type="line" smooth="no"/>
      <point x="815" y="71" type="line" smooth="no"/>
      <point x="1037.5" y="119" type="line" smooth="no"/>
      <point x="1037.5" y="582.5" type="line" smooth="no"/>
      <point x="599.5" y="582.5" type="line" smooth="no"/>
      <point x="320" y="118.5" type="line" smooth="no"/>
      <point x="549.5" y="81" type="line" smooth="no"/>
      <point x="536" y="2" type="line" smooth="no"/>
    </contour>
    <contour>
      <point x="656" y="682" type="line" smooth="no"/>
      <point x="1039" y="682" type="line" smooth="no"/>
      <point x="1040.5" y="1326.5" type="line" smooth="no"/>
    </contour>
  </outline>
</glyph>
<glyph name="Eth" format="1">
  <advance width="1664"/>
  <unicode hex="00d0"/>
  <outline>
    <contour>
      <point x="101" y="708" type="line" smooth="no"/>
      <point x="113.5" y="802" type="line" smooth="no"/>
      <point x="324" y="817" type="line" smooth="no"/>
      <point x="324" y="1393" type="line" smooth="no"/>
      <point x="111.5" y="1424.5" type="line" smooth="no"/>
      <point x="123" y="1494" type="line" smooth="no"/>
      <point x="366" y="1532"/>
      <point x="552.5" y="1554"/>
      <point x="732" y="1554" type="curve" smooth="yes"/>
      <point x="1392" y="1554"/>
      <point x="1599.5" y="1190"/>
      <point x="1599.5" y="810" type="curve" smooth="yes"/>
      <point x="1599.5" y="398"/>
      <point x="1303" y="0"/>
      <point x="682" y="0" type="curve" smooth="yes"/>
      <point x="99.5" y="0" type="line" smooth="no"/>
      <point x="113.5" y="71" type="line" smooth="no"/>
      <point x="324" y="124" type="line" smooth="no"/>
      <point x="324" y="724.5" type="line" smooth="no"/>
    </contour>
    <contour>
      <point x="504.5" y="97.5" type="line" smooth="no"/>
      <point x="746" y="97.5" type="line" smooth="yes"/>
      <point x="1167.5" y="97.5"/>
      <point x="1396.5" y="376"/>
      <point x="1396.5" y="738.5" type="curve" smooth="yes"/>
      <point x="1396.5" y="1152"/>
      <point x="1156" y="1457.5"/>
      <point x="686.5" y="1457.5" type="curve" smooth="yes"/>
      <point x="636" y="1457.5"/>
      <point x="555" y="1457"/>
      <point x="504.5" y="1451" type="curve" smooth="no"/>
      <point x="504.5" y="829" type="line" smooth="no"/>
      <point x="840.5" y="854" type="line" smooth="no"/>
      <point x="827.5" y="760.5" type="line" smooth="no"/>
      <point x="504.5" y="736.5" type="line" smooth="no"/>
    </contour>
  </outline>
</glyph>
<glyph name="multiply" format="1">
  <advance width="962"/>
  <unicode hex="00d7"/>
  <outline>
    <contour>
      <point x="80" y="372.5" type="line" smooth="no"/>
      <point x="290.5" y="569.5" type="line" smooth="no"/>
      <point x="82" y="771" type="line" smooth="no"/>
      <point x="169" y="840.5" type="line" smooth="no"/>
      <point x="364.5" y="634" type="line" smooth="no"/>
      <point x="572.5" y="846.5" type="line" smooth="no"/>
      <point x="641.5" y="759" type="line" smooth="no"/>
      <point x="434" y="565.5" type="line" smooth="no"/>
      <point x="647.5" y="360.5" type="line" smooth="no"/>
      <point x="561" y="291.5" type="line" smooth="no"/>
      <point x="359.5" y="501.5" type="line" smooth="no"/>
      <point x="150" y="286" type="line" smooth="no"/>
    </contour>
  </outline>
</glyph>
<glyph name="Oslash" format="1">
  <advance width="1649"/>
  <unicode hex="00d8"/>
  <outline>
    <contour>
      <point x="217" y="9.5" type="line" smooth="no"/>
      <point x="388.5" y="239" type="line" smooth="no"/>
      <point x="437" y="267" type="line" smooth="no"/>
      <point x="1241" y="1327.5" type="line" smooth="no"/>
      <point x="1251.5" y="1373.5" type="line" smooth="no"/>
      <point x="1363.5" y="1521" type="line" smooth="no"/>
      <point x="1512" y="1504.5" type="line" smooth="no"/>
      <point x="1359.5" y="1319.5" type="line" smooth="no"/>
      <point x="1300.5" y="1274.5" type="line" smooth="no"/>
      <point x="479.5" y="191" type="line" smooth="no"/>
      <point x="473" y="154.5" type="line" smooth="no"/>
      <point x="360" y="-6.5" type="line" smooth="no"/>
    </contour>
    <contour>
      <point x="349.5" y="836" type="curve" smooth="yes"/>
      <point x="349.5" y="427"/>
      <point x="524.5" y="72"/>
      <point x="881.5" y="72" type="curve" smooth="yes"/>
      <point x="1248" y="72"/>
      <point x="1380.5" y="408"/>
      <point x="1380.5" y="707.5" type="curve" smooth="yes"/>
      <point x="1380.5" y="1117.5"/>
      <point x="1201" y="1476.5"/>
      <point x="847.5" y="1476.5" type="curve" smooth="yes"/>
      <point x="481.5" y="1476.5"/>
      <point x="349.5" y="1157.5"/>
    </contour>
    <contour>
      <point x="145" y="764.5" type="curve" smooth="yes"/>
      <point x="145" y="1239"/>
      <point x="438" y="1571"/>
      <point x="907.5" y="1571" type="curve" smooth="yes"/>
      <point x="1342" y="1571"/>
      <point x="1584.5" y="1218.5"/>
      <point x="1584.5" y="769.5" type="curve" smooth="yes"/>
      <point x="1584.5" y="368"/>
      <point x="1328" y="-33"/>
      <point x="821.5" y="-33" type="curve" smooth="yes"/>
      <point x="413" y="-33"/>
      <point x="145" y="323.5"/>
    </contour>
  </outline>
</glyph>
<glyph name="Thorn" format="1">
  <advance width="1097"/>
  <unicode hex="00de"/>
  <outline>
    <contour>
      <point x="100.5" y="1464" type="line" smooth="no"/>
      <point x="110" y="1535" type="line" smooth="no"/>
      <point x="728" y="1535" type="line" smooth="no"/>
      <point x="718.5" y="1464" type="line" smooth="no"/>
      <point x="504" y="1426" type="line" smooth="no"/>
      <point x="504" y="1259.5" type="line" smooth="no"/>
      <point x="554.5" y="1261.5"/>
      <point x="616" y="1263"/>
      <point x="666.5" y="1263" type="curve" smooth="yes"/>
      <point x="993" y="1263"/>
      <point x="1274.5" y="1151"/>
      <point x="1274.5" y="814" type="curve" smooth="yes"/>
      <point x="1274.5" y="513"/>
      <point x="1007" y="313.5"/>
      <point x="702.5" y="313.5" type="curve" smooth="yes"/>
      <point x="669.5" y="313.5"/>
      <point x="634" y="315"/>
      <point x="598.5" y="319" type="curve" smooth="no"/>
      <point x="593.5" y="334"/>
      <point x="581.5" y="372.5"/>
      <point x="581.5" y="397" type="curve" smooth="no"/>
      <point x="592.5" y="396.5"/>
      <point x="636.5" y="398.5"/>
      <point x="646.5" y="398.5" type="curve" smooth="no"/>
      <point x="943.5" y="406"/>
      <point x="1070.5" y="560"/>
      <point x="1070.5" y="780" type="curve" smooth="yes"/>
      <point x="1070.5" y="991"/>
      <point x="933.5" y="1175.5"/>
      <point x="637" y="1175.5" type="curve" smooth="yes"/>
      <point x="586.5" y="1175.5"/>
      <point x="504" y="1167"/>
      <point x="504" y="1167" type="curve" smooth="no"/>
      <point x="504" y="115.5" type="line" smooth="no"/>
      <point x="794.5" y="79.5" type="line" smooth="no"/>
      <point x="781" y="-0.5" type="line" smooth="no"/>
      <point x="107.5" y="-0.5" type="line" smooth="no"/>
      <point x="116.5" y="70.5" type="line" smooth="no"/>
      <point x="318" y="118" type="line" smooth="no"/>
      <point x="320" y="1423" type="line" smooth="no"/>
    </contour>
  </outline>
</glyph>
<glyph name="ae" format="1">
  <advance width="1540"/>
  <unicode hex="00e6"/>
  <outline>
    <contour>
      <point x="113.5" y="201" type="curve" smooth="yes"/>
      <point x="113.5" y="392"/>
      <point x="255" y="523.5"/>
      <point x="683" y="587" type="curve" smooth="no"/>
      <point x="683" y="665.5" type="line" smooth="yes"/>
      <point x="683" y="878"/>
      <point x="639" y="1003"/>
      <point x="462.5" y="1003" type="curve" smooth="yes"/>
      <point x="335" y="1003"/>
      <point x="312.5" y="902"/>
      <point x="294" y="751" type="curve" smooth="no"/>
      <point x="235" y="751"/>
      <point x="160" y="765.5"/>
      <point x="160" y="854.5" type="curve" smooth="yes"/>
      <point x="160" y="985"/>
      <point x="375" y="1095.5"/>
      <point x="546.5" y="1095.5" type="curve" smooth="yes"/>
      <point x="676" y="1095.5"/>
      <point x="769.5" y="1040.5"/>
      <point x="803.5" y="922.5" type="curve" smooth="no"/>
      <point x="897.5" y="1043.5"/>
      <point x="1026" y="1093.5"/>
      <point x="1144.5" y="1093.5" type="curve" smooth="yes"/>
      <point x="1324" y="1093.5"/>
      <point x="1454" y="973"/>
      <point x="1454" y="712.5" type="curve" smooth="yes"/>
      <point x="1454" y="674.5"/>
      <point x="1443" y="596"/>
      <point x="1432.5" y="553" type="curve" smooth="no"/>
      <point x="836" y="527.5" type="line" smooth="no"/>
      <point x="841" y="295"/>
      <point x="945" y="86"/>
      <point x="1189" y="86" type="curve" smooth="yes"/>
      <point x="1291" y="86"/>
      <point x="1369" y="117"/>
      <point x="1462" y="180.5" type="curve" smooth="no"/>
      <point x="1485.5" y="128.5" type="line" smooth="no"/>
      <point x="1401.5" y="31.5"/>
      <point x="1268" y="-36.5"/>
      <point x="1104.5" y="-36.5" type="curve" smooth="yes"/>
      <point x="978" y="-36.5"/>
      <point x="778" y="54.5"/>
      <point x="730.5" y="212" type="curve" smooth="no"/>
      <point x="693" y="91"/>
      <point x="547.5" y="-31.5"/>
      <point x="362" y="-31.5" type="curve" smooth="yes"/>
      <point x="231.5" y="-31.5"/>
      <point x="113.5" y="49.5"/>
    </contour>
    <contour>
      <point x="281.5" y="246.5" type="curve" smooth="yes"/>
      <point x="281.5" y="146.5"/>
      <point x="339" y="77"/>
      <point x="438.5" y="77" type="curve" smooth="yes"/>
      <point x="551" y="77"/>
      <point x="683" y="178"/>
      <point x="683" y="314.5" type="curve" smooth="yes"/>
      <point x="683" y="513.5" type="line" smooth="no"/>
      <point x="405" y="471"/>
      <point x="281.5" y="403.5"/>
    </contour>
    <contour>
      <point x="836.5" y="606.5" type="curve" smooth="no"/>
      <point x="1268.5" y="652" type="line" smooth="no"/>
      <point x="1276.5" y="675.5"/>
      <point x="1280.5" y="734.5"/>
      <point x="1280.5" y="754" type="curve" smooth="yes"/>
      <point x="1280.5" y="900"/>
      <point x="1202" y="998.5"/>
      <point x="1083.5" y="998.5" type="curve" smooth="yes"/>
      <point x="953.5" y="998.5"/>
      <point x="842.5" y="854"/>
    </contour>
  </outline>
</glyph>
<glyph name="eth" format="1">
  <advance width="1149"/>
  <unicode hex="00f0"/>
  <outline>
    <contour>
      <point x="131.5" y="556.5" type="curve" smooth="yes"/>
      <point x="131.5" y="920.5"/>
      <point x="316" y="1170.5"/>
      <point x="578.5" y="1170.5" type="curve" smooth="yes"/>
      <point x="675.5" y="1170.5"/>
      <point x="786" y="1105"/>
      <point x="822.5" y="1011" type="curve" smooth="no"/>
      <point x="831" y="1013" type="line" smooth="no"/>
      <point x="800" y="1129"/>
      <point x="733.5" y="1242"/>
      <point x="667" y="1339.5" type="curve" smooth="no"/>
      <point x="381" y="1282.5" type="line" smooth="no"/>
      <point x="394.5" y="1361" type="line" smooth="no"/>
      <point x="625" y="1407" type="line" smooth="no"/>
      <point x="557" y="1496.5"/>
      <point x="489" y="1567"/>
      <point x="445.5" y="1607" type="curve" smooth="no"/>
      <point x="558.5" y="1607" type="line" smooth="no"/>
      <point x="614.5" y="1572"/>
      <point x="684.5" y="1514"/>
      <point x="753.5" y="1436.5" type="curve" smooth="no"/>
      <point x="946.5" y="1476.5" type="line" smooth="no"/>
      <point x="935" y="1397.5" type="line" smooth="no"/>
      <point x="808" y="1372" type="line" smooth="no"/>
      <point x="945" y="1191"/>
      <point x="1058" y="926.5"/>
      <point x="1058" y="574" type="curve" smooth="yes"/>
      <point x="1058" y="194"/>
      <point x="860.5" y="-33"/>
      <point x="595.5" y="-33" type="curve" smooth="yes"/>
      <point x="275" y="-33"/>
      <point x="131.5" y="257"/>
    </contour>
    <contour>
      <point x="303" y="615" type="curve" smooth="no"/>
      <point x="305" y="254.5"/>
      <point x="445.5" y="61.5"/>
      <point x="624" y="61.5" type="curve" smooth="yes"/>
      <point x="815" y="61.5"/>
      <point x="889" y="259"/>
      <point x="889" y="524" type="curve" smooth="yes"/>
      <point x="889" y="863.5"/>
      <point x="717.5" y="1077"/>
      <point x="562.5" y="1079" type="curve" smooth="no"/>
      <point x="556.5" y="1079" type="line" smooth="no"/>
      <point x="374" y="1077"/>
      <point x="303" y="866"/>
    </contour>
  </outline>
</glyph>
<glyph name="divide" format="1">
  <advance width="1183"/>
  <unicode hex="00f7"/>
  <outline>
    <contour>
      <point x="84.5" y="574" type="line" smooth="no"/>
      <point x="99.5" y="679" type="line" smooth="no"/>
      <point x="1101" y="679" type="line" smooth="no"/>
      <point x="1087.5" y="574" type="line" smooth="no"/>
    </contour>
    <contour>
      <point x="473" y="278.5" type="curve" smooth="yes"/>
      <point x="473" y="357"/>
      <point x="518" y="406.5"/>
      <point x="584" y="406.5" type="curve" smooth="yes"/>
      <point x="650.5" y="406.5"/>
      <point x="699" y="357"/>
      <point x="699" y="278" type="curve" smooth="yes"/>
      <point x="699" y="195.5"/>
      <point x="654" y="138"/>
      <point x="585" y="138" type="curve" smooth="yes"/>
      <point x="516" y="138"/>
      <point x="473" y="197.5"/>
    </contour>
    <contour>
      <point x="473" y="974.5" type="curve" smooth="yes"/>
      <point x="473" y="1053"/>
      <point x="518" y="1103"/>
      <point x="584" y="1103" type="curve" smooth="yes"/>
      <point x="650.5" y="1103"/>
      <point x="699" y="1053"/>
      <point x="699" y="974" type="curve" smooth="yes"/>
      <point x="699" y="891.5"/>
      <point x="654" y="834"/>
      <point x="585" y="834" type="curve" smooth="yes"/>
      <point x="516" y="834"/>
      <point x="473" y="893.5"/>
    </contour>
  </outline>
</glyph>
<glyph name="oslash" format="1">
  <advance width="1165"/>
  <unicode hex="00f8"/>
  <outline>
    <contour>
      <point x="69" y="0" type="line" smooth="no"/>
      <point x="245.5" y="200" type="line" smooth="no"/>
      <point x="298.5" y="226" type="line" smooth="no"/>
      <point x="846" y="893.5" type="line" smooth="no"/>
      <point x="863.5" y="944" type="line" smooth="no"/>
      <point x="966.5" y="1076.5" type="line" smooth="no"/>
      <point x="1132.5" y="1086" type="line" smooth="no"/>
      <point x="957" y="875" type="line" smooth="no"/>
      <point x="891.5" y="832.5" type="line" smooth="no"/>
      <point x="345.5" y="173.5" type="line" smooth="no"/>
      <point x="331.5" y="122.5" type="line" smooth="no"/>
      <point x="238" y="8" type="line" smooth="no"/>
    </contour>
    <contour>
      <point x="284.5" y="603.5" type="curve" smooth="yes"/>
      <point x="284.5" y="330.5"/>
      <point x="401" y="66.5"/>
      <point x="638" y="66.5" type="curve" smooth="yes"/>
      <point x="814.5" y="66.5"/>
      <point x="914.5" y="261"/>
      <point x="914.5" y="476.5" type="curve" smooth="yes"/>
      <point x="914.5" y="725.5"/>
      <point x="803" y="1010"/>
      <point x="572" y="1010" type="curve" smooth="yes"/>
      <point x="386" y="1010"/>
      <point x="284.5" y="820"/>
    </contour>
    <contour>
      <point x="109" y="515" type="curve" smooth="yes"/>
      <point x="109" y="892"/>
      <point x="349.5" y="1114.5"/>
      <point x="625.5" y="1114.5" type="curve" smooth="yes"/>
      <point x="912" y="1114.5"/>
      <point x="1089.5" y="864.5"/>
      <point x="1089.5" y="549.5" type="curve" smooth="yes"/>
      <point x="1089.5" y="205"/>
      <point x="864" y="-33"/>
      <point x="594" y="-33" type="curve" smooth="yes"/>
      <point x="296.5" y="-33"/>
      <point x="109" y="193.5"/>
    </contour>
  </outline>
</glyph>
<glyph name="thorn" format="1">
  <advance width="1186"/>
  <unicode hex="00fe"/>
  <outline>
    <contour>
      <point x="48" y="-456.5" type="line" smooth="no"/>
      <point x="55" y="-383.5" type="line" smooth="no"/>
      <point x="242.5" y="-348" type="line" smooth="no"/>
      <point x="241.5" y="1424" type="line" smooth="no"/>
      <point x="54" y="1475.5" type="line" smooth="no"/>
      <point x="64" y="1542" type="line" smooth="no"/>
      <point x="386" y="1567" type="line" smooth="no"/>
      <point x="406" y="1547" type="line" smooth="no"/>
      <point x="406" y="1047" type="line" smooth="no"/>
      <point x="391.5" y="912.5" type="line" smooth="no"/>
      <point x="402.5" y="912.5" type="line" smooth="no"/>
      <point x="470.5" y="996.5"/>
      <point x="582" y="1108"/>
      <point x="744" y="1108" type="curve" smooth="yes"/>
      <point x="955" y="1108"/>
      <point x="1116" y="925.5"/>
      <point x="1116" y="577.5" type="curve" smooth="yes"/>
      <point x="1116" y="230"/>
      <point x="895.5" y="-20.5"/>
      <point x="595.5" y="-20.5" type="curve" smooth="yes"/>
      <point x="557" y="-20.5"/>
      <point x="506" y="-16"/>
      <point x="465" y="-5" type="curve" smooth="no"/>
      <point x="460.5" y="101.5" type="line" smooth="no"/>
      <point x="507.5" y="86.5"/>
      <point x="553" y="81.5"/>
      <point x="618.5" y="81.5" type="curve" smooth="yes"/>
      <point x="833.5" y="81.5"/>
      <point x="938" y="267"/>
      <point x="938" y="507.5" type="curve" smooth="yes"/>
      <point x="938" y="796"/>
      <point x="852.5" y="977.5"/>
      <point x="663" y="977.5" type="curve" smooth="yes"/>
      <point x="548" y="977.5"/>
      <point x="464.5" y="901"/>
      <point x="402.5" y="836.5" type="curve" smooth="no"/>
      <point x="402.5" y="-349" type="line" smooth="no"/>
      <point x="594.5" y="-381" type="line" smooth="no"/>
      <point x="582.5" y="-456.5" type="line" smooth="no"/>
    </contour>
  </outline>
</glyph>
<glyph name="dotlessi" format="1">
  <advance width="685"/>
  <unicode hex="0131"/>
  <outline>
    <contour>
      <point x="99" y="0" type="line" smooth="no"/>
      <point x="114" y="68" type="line" smooth="no"/>
      <point x="300" y="107.5" type="line" smooth="no"/>
      <point x="300" y="952" type="line" smooth="no"/>
      <point x="112" y="1004.5" type="line" smooth="no"/>
      <point x="122" y="1067" type="line" smooth="no"/>
      <point x="441.5" y="1094" type="line" smooth="no"/>
      <point x="461.5" y="1074" type="line" smooth="no"/>
      <point x="461.5" y="107.5" type="line" smooth="no"/>
      <point x="659" y="70" type="line" smooth="no"/>
      <point x="645" y="0" type="line" smooth="no"/>
    </contour>
  </outline>
</glyph>
<glyph name="Eng" format="1">
  <advance width="1707"/>
  <unicode hex="014a"/>
  <outline>
    <contour>
      <point x="77.5" y="1466" type="line" smooth="no"/>
      <point x="89.5" y="1535" type="line" smooth="no"/>
      <point x="493" y="1535" type="line" smooth="no"/>
      <point x="1316" y="278" type="line" smooth="no"/>
      <point x="1316" y="1423" type="line" smooth="no"/>
      <point x="1088" y="1464" type="line" smooth="no"/>
      <point x="1099.5" y="1535" type="line" smooth="no"/>
      <point x="1654.5" y="1535" type="line" smooth="no"/>
      <point x="1641" y="1464" type="line" smooth="no"/>
      <point x="1435.5" y="1426" type="line" smooth="no"/>
      <point x="1435.5" y="186" type="line" smooth="yes"/>
      <point x="1435.5" y="-143"/>
      <point x="1291.5" y="-328.5"/>
      <point x="1116" y="-439" type="curve" smooth="yes"/>
      <point x="1061.5" y="-473" type="line" smooth="no"/>
      <point x="1010.5" y="-389" type="line" smooth="no"/>
      <point x="1121" y="-307.5"/>
      <point x="1227" y="-188.5"/>
      <point x="1261" y="40.5" type="curve" smooth="no"/>
      <point x="428" y="1292" type="line" smooth="no"/>
      <point x="428" y="111" type="line" smooth="no"/>
      <point x="655" y="78" type="line" smooth="no"/>
      <point x="642.5" y="0" type="line" smooth="no"/>
      <point x="90" y="0" type="line" smooth="no"/>
      <point x="98" y="71" type="line" smooth="no"/>
      <point x="304" y="119" type="line" smooth="no"/>
      <point x="304" y="1414.5" type="line" smooth="no"/>
    </contour>
  </outline>
</glyph>
<glyph name="eng" format="1">
  <advance width="1212"/>
  <unicode hex="014b"/>
  <outline>
    <contour>
      <point x="97" y="0" type="line" smooth="no"/>
      <point x="107" y="64" type="line" smooth="no"/>
      <point x="295.5" y="105.5" type="line" smooth="no"/>
      <point x="295.5" y="931" type="line" smooth="no"/>
      <point x="105" y="980" type="line" smooth="no"/>
      <point x="113" y="1044" type="line" smooth="no"/>
      <point x="441" y="1081" type="line" smooth="no"/>
      <point x="455.5" y="1063" type="line" smooth="no"/>
      <point x="442.5" y="900" type="line" smooth="no"/>
      <point x="453" y="900" type="line" smooth="no"/>
      <point x="523" y="987"/>
      <point x="672" y="1098"/>
      <point x="836.5" y="1098" type="curve" smooth="yes"/>
      <point x="1006" y="1098"/>
      <point x="1121.5" y="985"/>
      <point x="1121.5" y="740.5" type="curve" smooth="yes"/>
      <point x="1121.5" y="184.5" type="line" smooth="no"/>
      <point x="1119.5" y="-141"/>
      <point x="976.5" y="-329.5"/>
      <point x="801.5" y="-439" type="curve" smooth="yes"/>
      <point x="747" y="-473" type="line" smooth="no"/>
      <point x="696.5" y="-389" type="line" smooth="no"/>
      <point x="829.5" y="-289.5"/>
      <point x="960.5" y="-131"/>
      <point x="960.5" y="203" type="curve" smooth="yes"/>
      <point x="960" y="701" type="line" smooth="yes"/>
      <point x="960" y="890.5"/>
      <point x="863.5" y="963.5"/>
      <point x="750" y="963.5" type="curve" smooth="yes"/>
      <point x="632.5" y="963.5"/>
      <point x="553" y="923"/>
      <point x="457" y="827" type="curve" smooth="no"/>
      <point x="457" y="105.5" type="line" smooth="no"/>
      <point x="636.5" y="71" type="line" smooth="no"/>
      <point x="624" y="0" type="line" smooth="no"/>
    </contour>
  </outline>
</glyph>
<glyph name="caron" format="1">
  <advance width="766"/>
  <unicode hex="02c7"/>
  <outline>
    <contour>
      <point x="133" y="1887.5" type="line" smooth="no"/>
      <point x="217.5" y="1955.5" type="line" smooth="no"/>
      <point x="411" y="1762.5" type="line" smooth="no"/>
      <point x="423" y="1762.5" type="line" smooth="no"/>
      <point x="586.5" y="1951" type="line" smooth="no"/>
      <point x="636" y="1915.5" type="line" smooth="no"/>
      <point x="423.5" y="1691.5" type="line" smooth="no"/>
      <point x="354" y="1674.5" type="line" smooth="no"/>
    </contour>
  </outline>
</glyph>
<glyph name="breve" format="1">
  <advance width="736"/>
  <unicode hex="02d8"/>
  <outline>
    <contour>
      <point x="130" y="1915.5" type="curve" smooth="no"/>
      <point x="177" y="1950" type="line" smooth="no"/>
      <point x="206" y="1891.5"/>
      <point x="263" y="1809.5"/>
      <point x="364" y="1809.5" type="curve" smooth="yes"/>
      <point x="467.5" y="1809.5"/>
      <point x="528" y="1890.5"/>
      <point x="562.5" y="1952.5" type="curve" smooth="no"/>
      <point x="602.5" y="1921.5" type="line" smooth="no"/>
      <point x="566" y="1812.5"/>
      <point x="498.5" y="1695.5"/>
      <point x="364" y="1695.5" type="curve" smooth="yes"/>
      <point x="219" y="1695.5"/>
      <point x="157" y="1808.5"/>
    </contour>
  </outline>
</glyph>
<glyph name="dotaccent" format="1">
  <advance width="561"/>
  <unicode hex="02d9"/>
  <outline>
    <contour>
      <point x="199" y="1825.5" type="curve" smooth="yes"/>
      <point x="199" y="1904"/>
      <point x="246" y="1955"/>
      <point x="311" y="1955" type="curve" smooth="yes"/>
      <point x="377.5" y="1955"/>
      <point x="426" y="1903.5"/>
      <point x="426" y="1824.5" type="curve" smooth="yes"/>
      <point x="426" y="1742"/>
      <point x="380" y="1685"/>
      <point x="311" y="1685" type="curve" smooth="yes"/>
      <point x="242" y="1685"/>
      <point x="199" y="1744.5"/>
    </contour>
  </outline>
</glyph>
<glyph name="ogonek" format="1">
  <advance width="600"/>
  <unicode hex="02db"/>
  <outline>
    <contour>
      <point x="154" y="-257.5" type="curve" smooth="yes"/>
      <point x="154" y="-192"/>
      <point x="178" y="-122.5"/>
      <point x="319" y="4" type="curve" smooth="no"/>
      <point x="392.5" y="4" type="line" smooth="no"/>
      <point x="316.5" y="-104.5"/>
      <point x="305.5" y="-155"/>
      <point x="305.5" y="-194" type="curve" smooth="yes"/>
      <point x="305.5" y="-283"/>
      <point x="358" y="-359"/>
      <point x="469.5" y="-424.5" type="curve" smooth="no"/>
      <point x="428" y="-477" type="line" smooth="no"/>
      <point x="250" y="-458.5"/>
      <point x="154" y="-363"/>
    </contour>
  </outline>
</glyph>
<glyph name="tilde" format="1">
  <advance width="985"/>
  <unicode hex="02dc"/>
  <outline>
    <contour>
      <point x="133" y="1704" type="line" smooth="no"/>
      <point x="133" y="1704"/>
      <point x="178" y="1905"/>
      <point x="314" y="1875" type="curve" smooth="yes"/>
      <point x="565" y="1823.5" type="line" smooth="yes"/>
      <point x="625.5" y="1808"/>
      <point x="659" y="1889.5"/>
      <point x="659" y="1889.5" type="curve" smooth="no"/>
      <point x="710" y="1887.5" type="line" smooth="no"/>
      <point x="710" y="1887.5"/>
      <point x="658" y="1685.5"/>
      <point x="519.5" y="1716.5" type="curve" smooth="yes"/>
      <point x="271.5" y="1768" type="line" smooth="yes"/>
      <point x="214.5" y="1783"/>
      <point x="174" y="1691.5"/>
      <point x="174" y="1691.5" type="curve" smooth="no"/>
    </contour>
  </outline>
</glyph>
<glyph name="hungarumlaut" format="1">
  <advance width="918"/>
  <unicode hex="02dd"/>
  <outline>
    <contour>
      <point x="139" y="1728.5" type="line" smooth="no"/>
      <point x="457" y="1985" type="line" smooth="no"/>
      <point x="539" y="1889" type="line" smooth="no"/>
      <point x="169" y="1676.5" type="line" smooth="no"/>
    </contour>
    <contour>
      <point x="399" y="1728.5" type="line" smooth="no"/>
      <point x="708.5" y="1974.5" type="line" smooth="no"/>
      <point x="788" y="1883.5" type="line" smooth="no"/>
      <point x="429" y="1676.5" type="line" smooth="no"/>
    </contour>
  </outline>
</glyph>
<glyph name="dotaccentcomb" format="1">
  <advance width="33"/>
  <unicode hex="0307"/>
  <outline>
    <contour>
      <point x="159.5" y="1791" type="curve" smooth="yes"/>
      <point x="159.5" y="1866"/>
      <point x="200" y="1916.5"/>
      <point x="262.5" y="1916.5" type="curve" smooth="yes"/>
      <point x="325" y="1916.5"/>
      <point x="368.5" y="1867"/>
      <point x="368.5" y="1791" type="curve" smooth="yes"/>
      <point x="368.5" y="1712.5"/>
      <point x="329" y="1661"/>
      <point x="263" y="1661" type="curve" smooth="yes"/>
      <point x="198" y="1661"/>
      <point x="159.5" y="1715"/>
    </contour>
  </outline>
</glyph>
<glyph name="commaaccent" format="1">
  <advance width="708"/>
  <unicode hex="0326"/>
  <outline>
    <contour>
      <point x="5" y="-425.5" type="line" smooth="no"/>
      <point x="97" y="-403"/>
      <point x="140.5" y="-356"/>
      <point x="140.5" y="-300.5" type="curve" smooth="yes"/>
      <point x="140.5" y="-239.5"/>
      <point x="74.5" y="-201"/>
      <point x="26" y="-197" type="curve" smooth="no"/>
      <point x="31.5" y="-152"/>
      <point x="71.5" y="-105"/>
      <point x="129" y="-105" type="curve" smooth="yes"/>
      <point x="188.5" y="-105"/>
      <point x="255" y="-148.5"/>
      <point x="255" y="-252" type="curve" smooth="yes"/>
      <point x="255" y="-324"/>
      <point x="205" y="-442.5"/>
      <point x="26.5" y="-480.5" type="curve" smooth="no"/>
    </contour>
  </outline>
</glyph>
<glyph name="mu" format="1">
  <advance width="1255"/>
  <unicode hex="03bc"/>
  <outline>
    <contour>
      <point x="71" y="991" type="line" smooth="no"/>
      <point x="81" y="1057" type="line" smooth="no"/>
      <point x="389" y="1083" type="line" smooth="no"/>
      <point x="409" y="1061.5" type="line" smooth="no"/>
      <point x="409" y="389.5" type="line" smooth="yes"/>
      <point x="409" y="187"/>
      <point x="489" y="101"/>
      <point x="619.5" y="101" type="curve" smooth="yes"/>
      <point x="731" y="101"/>
      <point x="814.5" y="169.5"/>
      <point x="875" y="229" type="curve" smooth="no"/>
      <point x="875" y="936" type="line" smooth="no"/>
      <point x="680" y="980.5" type="line" smooth="no"/>
      <point x="687.5" y="1053" type="line" smooth="no"/>
      <point x="1015.5" y="1083" type="line" smooth="no"/>
      <point x="1032.5" y="1061.5" type="line" smooth="no"/>
      <point x="1032.5" y="273.5" type="line" smooth="yes"/>
      <point x="1032.5" y="147.5"/>
      <point x="1062.5" y="103"/>
      <point x="1156.5" y="84.5" type="curve" smooth="yes"/>
      <point x="1221.5" y="70.5" type="line" smooth="no"/>
      <point x="1213.5" y="-2.5" type="line" smooth="no"/>
      <point x="1162.5" y="-17"/>
      <point x="1119" y="-26"/>
      <point x="1057" y="-26" type="curve" smooth="yes"/>
      <point x="945" y="-26"/>
      <point x="889" y="52"/>
      <point x="889" y="146.5" type="curve" smooth="yes"/>
      <point x="889" y="161.5" type="line" smooth="no"/>
      <point x="875" y="161.5" type="line" smooth="no"/>
      <point x="777" y="36.5"/>
      <point x="655" y="-29.5"/>
      <point x="531.5" y="-29.5" type="curve" smooth="yes"/>
      <point x="451.5" y="-29.5"/>
      <point x="379.5" y="-2"/>
      <point x="342" y="60" type="curve" smooth="no"/>
      <point x="334" y="60" type="line" smooth="no"/>
      <point x="338" y="38"/>
      <point x="340" y="-26.5"/>
      <point x="344.5" y="-105.5" type="curve" smooth="no"/>
      <point x="363" y="-479" type="line" smooth="no"/>
      <point x="225.5" y="-447" type="line" smooth="no"/>
      <point x="227.5" y="-414"/>
      <point x="251" y="223"/>
      <point x="251" y="610" type="curve" smooth="yes"/>
      <point x="251" y="939" type="line" smooth="no"/>
    </contour>
  </outline>
</glyph>
<glyph name="Germandbls" format="1">
  <advance width="1585"/>
  <unicode hex="1e9e"/>
  <outline>
    <contour>
      <point x="88.5" y="0" type="line" smooth="no"/>
      <point x="97" y="70.5" type="line" smooth="no"/>
      <point x="303" y="118" type="line" smooth="no"/>
      <point x="303" y="934.5" type="line" smooth="yes"/>
      <point x="303" y="1371"/>
      <point x="527.5" y="1555.5"/>
      <point x="894.5" y="1555.5" type="curve" smooth="yes"/>
      <point x="1126" y="1555.5"/>
      <point x="1460.5" y="1478"/>
      <point x="1460.5" y="1292.5" type="curve" smooth="yes"/>
      <point x="1460.5" y="1212"/>
      <point x="1416.5" y="1176.5"/>
      <point x="1334.5" y="1149.5" type="curve" smooth="no"/>
      <point x="1299.5" y="1280.5"/>
      <point x="1228.5" y="1422.5"/>
      <point x="1074" y="1422.5" type="curve" smooth="yes"/>
      <point x="969.5" y="1422.5"/>
      <point x="840.5" y="1324.5"/>
      <point x="840.5" y="1167" type="curve" smooth="yes"/>
      <point x="840.5" y="795.5"/>
      <point x="1536" y="798.5"/>
      <point x="1536" y="385" type="curve" smooth="yes"/>
      <point x="1536" y="129.5"/>
      <point x="1328" y="-30.5"/>
      <point x="1036.5" y="-30.5" type="curve" smooth="yes"/>
      <point x="860" y="-30.5"/>
      <point x="702.5" y="41"/>
      <point x="629" y="145.5" type="curve" smooth="no"/>
      <point x="655.5" y="479" type="line" smooth="no"/>
      <point x="743.5" y="465.5" type="line" smooth="no"/>
      <point x="782" y="221" type="line" smooth="no"/>
      <point x="831.5" y="132.5"/>
      <point x="956.5" y="70"/>
      <point x="1083" y="70" type="curve" smooth="yes"/>
      <point x="1224" y="70"/>
      <point x="1356" y="138"/>
      <point x="1356" y="316" type="curve" smooth="yes"/>
      <point x="1356" y="647"/>
      <point x="675.5" y="651.5"/>
      <point x="675.5" y="1078" type="curve" smooth="yes"/>
      <point x="675.5" y="1249.5"/>
      <point x="780" y="1420.5"/>
      <point x="954" y="1461" type="curve" smooth="no"/>
      <point x="955.5" y="1465.5" type="line" smooth="no"/>
      <point x="931" y="1468"/>
      <point x="872.5" y="1469.5"/>
      <point x="848" y="1469.5" type="curve" smooth="yes"/>
      <point x="604.5" y="1469.5"/>
      <point x="483" y="1277.5"/>
      <point x="483" y="962.5" type="curve" smooth="yes"/>
      <point x="484" y="0" type="line" smooth="no"/>
    </contour>
  </outline>
</glyph>
<glyph name="endash" format="1">
  <advance width="978"/>
  <unicode hex="2013"/>
  <outline>
    <contour>
      <point x="106" y="517.5" type="line" smooth="no"/>
      <point x="122.5" y="621" type="line" smooth="no"/>
      <point x="876" y="628.5" type="line" smooth="no"/>
      <point x="860" y="526" type="line" smooth="no"/>
    </contour>
  </outline>
</glyph>
<glyph name="emdash" format="1">
  <advance width="1606"/>
  <unicode hex="2014"/>
  <outline>
    <contour>
      <point x="106" y="517.5" type="line" smooth="no"/>
      <point x="123" y="621" type="line" smooth="no"/>
      <point x="1505" y="628.5" type="line" smooth="no"/>
      <point x="1488" y="526" type="line" smooth="no"/>
    </contour>
  </outline>
</glyph>
<glyph name="dagger" format="1">
  <advance width="1046"/>
  <unicode hex="2020"/>
  <outline>
    <contour>
      <point x="95.5" y="892.5" type="line" smooth="no"/>
      <point x="106" y="1010" type="line" smooth="no"/>
      <point x="472" y="1001" type="line" smooth="no"/>
      <point x="462" y="1549" type="line" smooth="no"/>
      <point x="601.5" y="1535" type="line" smooth="no"/>
      <point x="588.5" y="1001" type="line" smooth="no"/>
      <point x="966.5" y="1010" type="line" smooth="no"/>
      <point x="958" y="885.5" type="line" smooth="no"/>
      <point x="588.5" y="898.5" type="line" smooth="no"/>
      <point x="608.5" y="-448" type="line" smooth="no"/>
      <point x="454" y="-432.5" type="line" smooth="no"/>
      <point x="472" y="901" type="line" smooth="no"/>
    </contour>
  </outline>
</glyph>
<glyph name="guilsinglleft" format="1">
  <advance width="534"/>
  <unicode hex="2039"/>
  <outline>
    <contour>
      <point x="63" y="578.5" type="line" smooth="no"/>
      <point x="394" y="1013" type="line" smooth="no"/>
      <point x="438.5" y="954.5" type="line" smooth="no"/>
      <point x="220.5" y="569" type="line" smooth="no"/>
      <point x="439.5" y="158" type="line" smooth="no"/>
      <point x="387.5" y="95.5" type="line" smooth="no"/>
      <point x="65" y="554" type="line" smooth="no"/>
    </contour>
  </outline>
</glyph>
<glyph name="fraction" format="1">
  <advance width="2145"/>
  <unicode hex="2044"/>
  <outline>
    <contour>
      <point x="202" y="-32" type="line" smooth="no"/>
      <point x="666.5" y="725.5" type="line" smooth="no"/>
      <point x="1103.5" y="1494" type="line" smooth="no"/>
      <point x="1265" y="1489.5" type="line" smooth="no"/>
      <point x="1264" y="1471" type="line" smooth="no"/>
      <point x="811" y="729.5" type="line" smooth="no"/>
      <point x="382" y="-49" type="line" smooth="no"/>
    </contour>
  </outline>
</glyph>
<glyph name="partialdiff" format="1">
  <advance width="1139"/>
  <unicode hex="2202"/>
  <outline>
    <contour>
      <point x="129" y="556.5" type="curve" smooth="yes"/>
      <point x="129" y="920.5"/>
      <point x="314" y="1170.5"/>
      <point x="576.5" y="1170.5" type="curve" smooth="yes"/>
      <point x="673.5" y="1170.5"/>
      <point x="783" y="1105"/>
      <point x="819.5" y="1011" type="curve" smooth="no"/>
      <point x="828.5" y="1013" type="line" smooth="no"/>
      <point x="771" y="1252.5"/>
      <point x="554.5" y="1510.5"/>
      <point x="442.5" y="1607" type="curve" smooth="no"/>
      <point x="555.5" y="1607" type="line" smooth="no"/>
      <point x="893" y="1399.5"/>
      <point x="1055.5" y="1017"/>
      <point x="1055.5" y="574" type="curve" smooth="yes"/>
      <point x="1055.5" y="194"/>
      <point x="857.5" y="-33"/>
      <point x="592.5" y="-33" type="curve" smooth="yes"/>
      <point x="272" y="-33"/>
      <point x="129" y="257"/>
    </contour>
    <contour>
      <point x="300.5" y="615" type="curve" smooth="no"/>
      <point x="302.5" y="254.5"/>
      <point x="443" y="61.5"/>
      <point x="621.5" y="61.5" type="curve" smooth="yes"/>
      <point x="812.5" y="61.5"/>
      <point x="886" y="259"/>
      <point x="886" y="524" type="curve" smooth="yes"/>
      <point x="886" y="863.5"/>
      <point x="715.5" y="1077"/>
      <point x="560.5" y="1079" type="curve" smooth="no"/>
      <point x="554.5" y="1079" type="line" smooth="no"/>
      <point x="372" y="1077"/>
      <point x="300.5" y="866"/>
    </contour>
  </outline>
</glyph>
<glyph name="emptyset" format="1">
  <advance width="1249"/>
  <unicode hex="2205"/>
  <outline>
    <contour>
      <point x="25.5" y="118.5" type="line" smooth="no"/>
      <point x="180.5" y="234" type="line" smooth="no"/>
      <point x="220" y="246" type="line" smooth="no"/>
      <point x="995" y="941" type="line" smooth="no"/>
      <point x="1001.5" y="972.5" type="line" smooth="no"/>
      <point x="1124.5" y="1107.5" type="line" smooth="no"/>
      <point x="1208" y="985.5" type="line" smooth="no"/>
      <point x="1066" y="876.5" type="line" smooth="no"/>
      <point x="1041.5" y="878.5" type="line" smooth="no"/>
      <point x="257.5" y="175.5" type="line" smooth="no"/>
      <point x="244" y="140.5" type="line" smooth="no"/>
      <point x="109" y="-4.5" type="line" smooth="no"/>
    </contour>
    <contour>
      <point x="59" y="548" type="curve" smooth="yes"/>
      <point x="59" y="861"/>
      <point x="337" y="1147"/>
      <point x="625" y="1147" type="curve" smooth="yes"/>
      <point x="970" y="1147"/>
      <point x="1185" y="881"/>
      <point x="1185" y="547" type="curve" smooth="yes"/>
      <point x="1185" y="230"/>
      <point x="968" y="-46"/>
      <point x="626" y="-46" type="curve" smooth="yes"/>
      <point x="312" y="-46"/>
      <point x="59" y="188"/>
    </contour>
    <contour>
      <point x="201" y="547" type="curve" smooth="yes"/>
      <point x="201" y="225.5"/>
      <point x="416.5" y="64.5"/>
      <point x="626.5" y="64.5" type="curve" smooth="yes"/>
      <point x="867" y="64.5"/>
      <point x="1042" y="218.5"/>
      <point x="1042" y="548" type="curve" smooth="yes"/>
      <point x="1042" y="868.5"/>
      <point x="843.5" y="1031.5"/>
      <point x="624.5" y="1031.5" type="curve" smooth="yes"/>
      <point x="384" y="1031.5"/>
      <point x="201" y="847.5"/>
    </contour>
  </outline>
</glyph>
<glyph name="minus" format="1">
  <advance width="993"/>
  <unicode hex="2212"/>
  <outline>
    <contour>
      <point x="111.5" y="519" type="line" smooth="no"/>
      <point x="132.5" y="622.5" type="line" smooth="no"/>
      <point x="885.5" y="626.5" type="line" smooth="no"/>
      <point x="865" y="523" type="line" smooth="no"/>
    </contour>
  </outline>
</glyph>
<glyph name="radical" format="1">
  <advance width="1234"/>
  <unicode hex="221a"/>
  <outline>
    <contour>
      <point x="18.5" y="565" type="line" smooth="no"/>
      <point x="30.5" y="637.5" type="line" smooth="no"/>
      <point x="342.5" y="657.5" type="line" smooth="no"/>
      <point x="557.5" y="68" type="line" smooth="no"/>
      <point x="1132" y="1599" type="line" smooth="no"/>
      <point x="1253" y="1607" type="line" smooth="no"/>
      <point x="586" y="-143" type="line" smooth="no"/>
      <point x="471" y="-163.5" type="line" smooth="no"/>
      <point x="198.5" y="535" type="line" smooth="no"/>
    </contour>
  </outline>
</glyph>
<glyph name="infinity" format="1">
  <advance width="1698"/>
  <unicode hex="221e"/>
  <outline>
    <contour>
      <point x="79" y="620" type="curve" smooth="yes"/>
      <point x="79" y="867"/>
      <point x="246.5" y="1063.5"/>
      <point x="467.5" y="1063.5" type="curve" smooth="yes"/>
      <point x="620.5" y="1063.5"/>
      <point x="738.5" y="999.5"/>
      <point x="857.5" y="808.5" type="curve" smooth="no"/>
      <point x="864.5" y="810.5" type="line" smooth="no"/>
      <point x="963" y="947"/>
      <point x="1086.5" y="1058"/>
      <point x="1259.5" y="1058" type="curve" smooth="yes"/>
      <point x="1452.5" y="1058"/>
      <point x="1601.5" y="912"/>
      <point x="1601.5" y="678.5" type="curve" smooth="yes"/>
      <point x="1601.5" y="443.5"/>
      <point x="1427" y="266"/>
      <point x="1215.5" y="266" type="curve" smooth="yes"/>
      <point x="1054.5" y="266"/>
      <point x="936" y="378.5"/>
      <point x="849" y="512.5" type="curve" smooth="no"/>
      <point x="841.5" y="512.5" type="line" smooth="no"/>
      <point x="729.5" y="330"/>
      <point x="587" y="261.5"/>
      <point x="451" y="261.5" type="curve" smooth="yes"/>
      <point x="230.5" y="261.5"/>
      <point x="79" y="397"/>
    </contour>
    <contour>
      <point x="171.5" y="675.5" type="curve" smooth="yes"/>
      <point x="171.5" y="528.5"/>
      <point x="307" y="415.5"/>
      <point x="489.5" y="415.5" type="curve" smooth="yes"/>
      <point x="621" y="415.5"/>
      <point x="746.5" y="485.5"/>
      <point x="805" y="572" type="curve" smooth="no"/>
      <point x="641.5" y="820"/>
      <point x="545" y="916"/>
      <point x="411.5" y="916" type="curve" smooth="yes"/>
      <point x="263" y="916"/>
      <point x="171.5" y="833.5"/>
    </contour>
    <contour>
      <point x="900.5" y="740.5" type="curve" smooth="no"/>
      <point x="1045.5" y="512"/>
      <point x="1161" y="408"/>
      <point x="1300.5" y="408" type="curve" smooth="yes"/>
      <point x="1433.5" y="408"/>
      <point x="1524" y="521.5"/>
      <point x="1524" y="645.5" type="curve" smooth="yes"/>
      <point x="1524" y="780.5"/>
      <point x="1372" y="910.5"/>
      <point x="1213.5" y="910.5" type="curve" smooth="yes"/>
      <point x="1055" y="910.5"/>
      <point x="960.5" y="809"/>
    </contour>
  </outline>
</glyph>
<glyph name="integral" format="1">
  <advance width="1133"/>
  <unicode hex="222b"/>
  <outline>
    <contour>
      <point x="12" y="-333.5" type="curve" smooth="no"/>
      <point x="12.5" y="-278.5"/>
      <point x="55.5" y="-234"/>
      <point x="97" y="-218" type="curve" smooth="no"/>
      <point x="144" y="-285.5"/>
      <point x="224.5" y="-367.5"/>
      <point x="317.5" y="-367.5" type="curve" smooth="yes"/>
      <point x="413.5" y="-367.5"/>
      <point x="487" y="-278.5"/>
      <point x="496.5" y="-71.5" type="curve" smooth="no"/>
      <point x="499" y="1028.5" type="line" smooth="yes"/>
      <point x="500.5" y="1447"/>
      <point x="750" y="1609.5"/>
      <point x="925" y="1609.5" type="curve" smooth="yes"/>
      <point x="1055.5" y="1609.5"/>
      <point x="1145.5" y="1554.5"/>
      <point x="1145.5" y="1470" type="curve" smooth="yes"/>
      <point x="1145.5" y="1415.5"/>
      <point x="1100.5" y="1372"/>
      <point x="1059.5" y="1356" type="curve" smooth="no"/>
      <point x="1013" y="1422.5"/>
      <point x="932.5" y="1505"/>
      <point x="840.5" y="1505" type="curve" smooth="yes"/>
      <point x="742.5" y="1505"/>
      <point x="665.5" y="1412"/>
      <point x="661.5" y="1210.5" type="curve" smooth="no"/>
      <point x="662" y="101" type="line" smooth="yes"/>
      <point x="662" y="-305.5"/>
      <point x="412.5" y="-473.5"/>
      <point x="233.5" y="-473.5" type="curve" smooth="yes"/>
      <point x="101.5" y="-473.5"/>
      <point x="12" y="-418"/>
    </contour>
  </outline>
</glyph>
<glyph name="notequal" format="1">
  <advance width="933"/>
  <unicode hex="2260"/>
  <outline>
    <contour>
      <point x="21" y="403" type="line" smooth="no"/>
      <point x="36" y="508" type="line" smooth="no"/>
      <point x="914" y="508" type="line" smooth="no"/>
      <point x="900" y="403" type="line" smooth="no"/>
    </contour>
    <contour>
      <point x="25" y="699" type="line" smooth="no"/>
      <point x="40" y="804" type="line" smooth="no"/>
      <point x="916" y="804" type="line" smooth="no"/>
      <point x="903" y="699" type="line" smooth="no"/>
    </contour>
    <contour>
      <point x="62" y="66" type="line" smooth="no"/>
      <point x="324.785" y="457" type="line" smooth="no"/>
      <point x="354.5" y="485" type="line" smooth="no"/>
      <point x="549" y="756" type="line" smooth="no"/>
      <point x="562" y="792" type="line" smooth="no"/>
      <point x="755" y="1072" type="line" smooth="no"/>
      <point x="876" y="1076" type="line" smooth="no"/>
      <point x="683" y="792" type="line" smooth="no"/>
      <point x="656" y="756" type="line" smooth="no"/>
      <point x="447.5" y="472" type="line" smooth="no"/>
      <point x="432" y="436" type="line" smooth="no"/>
      <point x="182" y="72" type="line" smooth="no"/>
    </contour>
  </outline>
</glyph>
<glyph name="uniF002" format="1">
  <advance width="1424"/>
  <unicode hex="f002"/>
  <outline>
    <contour>
      <point x="840.5" y="0" type="line" smooth="no"/>
      <point x="854" y="68" type="line" smooth="no"/>
      <point x="1042" y="107.5" type="line" smooth="no"/>
      <point x="1042" y="1426" type="line" smooth="no"/>
      <point x="850.5" y="1477" type="line" smooth="no"/>
      <point x="858" y="1541" type="line" smooth="no"/>
      <point x="1181.5" y="1567" type="line" smooth="no"/>
      <point x="1202.5" y="1547" type="line" smooth="no"/>
      <point x="1202.5" y="107.5" type="line" smooth="no"/>
      <point x="1400" y="70" type="line" smooth="no"/>
      <point x="1386" y="0" type="line" smooth="no"/>
    </contour>
    <contour>
      <point x="86.5" y="0" type="line" smooth="no"/>
      <point x="101.5" y="63.5" type="line" smooth="no"/>
      <point x="288.5" y="107.5" type="line" smooth="no"/>
      <point x="288.5" y="960.5" type="line" smooth="no"/>
      <point x="105" y="960.5" type="line" smooth="no"/>
      <point x="119.5" y="1027.5" type="line" smooth="no"/>
      <point x="290.5" y="1055" type="line" smooth="no"/>
      <point x="292.5" y="1447.5"/>
      <point x="498.5" y="1608"/>
      <point x="623" y="1608" type="curve" smooth="yes"/>
      <point x="719" y="1608"/>
      <point x="789" y="1581.5"/>
      <point x="789" y="1505" type="curve" smooth="yes"/>
      <point x="789" y="1456.5"/>
      <point x="758.5" y="1419"/>
      <point x="719.5" y="1401" type="curve" smooth="no"/>
      <point x="682.5" y="1453.5"/>
      <point x="615.5" y="1497"/>
      <point x="553.5" y="1497" type="curve" smooth="yes"/>
      <point x="487" y="1497"/>
      <point x="450" y="1364"/>
      <point x="452.5" y="1190.5" type="curve" smooth="yes"/>
      <point x="454.5" y="1047" type="line" smooth="no"/>
      <point x="772" y="1047" type="line" smooth="no"/>
      <point x="756.5" y="960.5" type="line" smooth="no"/>
      <point x="454.5" y="960.5" type="line" smooth="no"/>
      <point x="454.5" y="112" type="line" smooth="no"/>
      <point x="757.5" y="75.5" type="line" smooth="no"/>
      <point x="748.5" y="0" type="line" smooth="no"/>
    </contour>
  </outline>
</glyph>
<glyph name="dollar.osf" format="1">
  <advance width="1062"/>
  <outline>
    <contour>
      <point x="87.5" y="197" type="curve" smooth="yes"/>
      <point x="87.5" y="273.5"/>
      <point x="145" y="324"/>
      <point x="218" y="333" type="curve" smooth="no"/>
      <point x="260" y="137.5"/>
      <point x="337.5" y="49"/>
      <point x="468.5" y="49" type="curve" smooth="yes"/>
      <point x="574" y="49"/>
      <point x="653" y="119.5"/>
      <point x="653" y="206" type="curve" smooth="yes"/>
      <point x="653" y="420"/>
      <point x="133" y="472"/>
      <point x="133" y="799.5" type="curve" smooth="yes"/>
      <point x="133" y="943.5"/>
      <point x="240" y="1110.5"/>
      <point x="474.5" y="1110.5" type="curve" smooth="yes"/>
      <point x="635.5" y="1110.5"/>
      <point x="759" y="1020"/>
      <point x="759" y="895" type="curve" smooth="yes"/>
      <point x="759" y="800.5"/>
      <point x="702.5" y="756.5"/>
      <point x="629" y="750.5" type="curve" smooth="no"/>
      <point x="619" y="799" type="line" smooth="yes"/>
      <point x="576" y="988.5"/>
      <point x="501.5" y="1031"/>
      <point x="427.5" y="1031" type="curve" smooth="yes"/>
      <point x="325" y="1031"/>
      <point x="264.5" y="970"/>
      <point x="264.5" y="878.5" type="curve" smooth="yes"/>
      <point x="264.5" y="621.5"/>
      <point x="798" y="579.5"/>
      <point x="798" y="269.5" type="curve" smooth="yes"/>
      <point x="798" y="86.5"/>
      <point x="620" y="-43"/>
      <point x="429.5" y="-43" type="curve" smooth="yes"/>
      <point x="232.5" y="-43"/>
      <point x="87.5" y="63"/>
    </contour>
    <contour>
      <point x="383" y="-243" type="line" smooth="no"/>
      <point x="401.5" y="-19" type="line" smooth="no"/>
      <point x="522.5" y="-7" type="line" smooth="no"/>
      <point x="540" y="-221" type="line" smooth="no"/>
    </contour>
    <contour>
      <point x="392" y="1285" type="line" smooth="no"/>
      <point x="540" y="1306" type="line" smooth="no"/>
      <point x="522.5" y="1098" type="line" smooth="no"/>
      <point x="409.5" y="1098" type="line" smooth="no"/>
    </contour>
  </outline>
</glyph>
<glyph name="eight.osf" format="1">
  <advance width="1006"/>
  <outline>
    <contour>
      <point x="82.5" y="346.5" type="curve" smooth="yes"/>
      <point x="82.5" y="485.5"/>
      <point x="177.5" y="620.5"/>
      <point x="356" y="737" type="curve" smooth="no"/>
      <point x="356" y="745.5" type="line" smooth="no"/>
      <point x="232" y="827"/>
      <point x="139" y="956"/>
      <point x="139" y="1111" type="curve" smooth="yes"/>
      <point x="139" y="1313"/>
      <point x="296.5" y="1482.5"/>
      <point x="523.5" y="1482.5" type="curve" smooth="yes"/>
      <point x="747" y="1482.5"/>
      <point x="866" y="1339"/>
      <point x="866" y="1153" type="curve" smooth="yes"/>
      <point x="866" y="985"/>
      <point x="779.5" y="868.5"/>
      <point x="649" y="774.5" type="curve" smooth="no"/>
      <point x="648" y="767" type="line" smooth="no"/>
      <point x="839" y="646.5"/>
      <point x="932" y="518.5"/>
      <point x="932" y="363.5" type="curve" smooth="yes"/>
      <point x="932" y="137"/>
      <point x="721.5" y="-33"/>
      <point x="464" y="-33" type="curve" smooth="yes"/>
      <point x="237" y="-33"/>
      <point x="82.5" y="122"/>
    </contour>
    <contour>
      <point x="240.5" y="384.5" type="curve" smooth="yes"/>
      <point x="240.5" y="199"/>
      <point x="390" y="61"/>
      <point x="520.5" y="61" type="curve" smooth="yes"/>
      <point x="681.5" y="61"/>
      <point x="780.5" y="154.5"/>
      <point x="780.5" y="306.5" type="curve" smooth="yes"/>
      <point x="780.5" y="443.5"/>
      <point x="666" y="542.5"/>
      <point x="416" y="700.5" type="curve" smooth="no"/>
      <point x="329.5" y="642"/>
      <point x="240.5" y="530"/>
    </contour>
    <contour>
      <point x="277" y="1192.5" type="curve" smooth="yes"/>
      <point x="277" y="1058.5"/>
      <point x="361" y="949.5"/>
      <point x="581.5" y="808.5" type="curve" smooth="no"/>
      <point x="648" y="866.5"/>
      <point x="727" y="956.5"/>
      <point x="727" y="1108.5" type="curve" smooth="yes"/>
      <point x="727" y="1262"/>
      <point x="621" y="1407"/>
      <point x="490.5" y="1407" type="curve" smooth="yes"/>
      <point x="370.5" y="1407"/>
      <point x="277" y="1320"/>
    </contour>
  </outline>
</glyph>
<glyph name="one.osf" format="1">
  <advance width="751"/>
  <outline>
    <contour>
      <point x="72" y="1.5" type="line" smooth="no"/>
      <point x="79.5" y="75.5" type="line" smooth="no"/>
      <point x="323" y="127" type="line" smooth="no"/>
      <point x="323" y="1011.5" type="line" smooth="no"/>
      <point x="101" y="1013" type="line" smooth="no"/>
      <point x="110" y="1088" type="line" smooth="no"/>
      <point x="463" y="1167" type="line" smooth="no"/>
      <point x="496.5" y="1167" type="line" smooth="no"/>
      <point x="496.5" y="121" type="line" smooth="no"/>
      <point x="737.5" y="85" type="line" smooth="no"/>
      <point x="727.5" y="1.5" type="line" smooth="no"/>
    </contour>
  </outline>
</glyph>
<glyph name="perthousand.osf" format="1">
  <advance width="2108"/>
  <outline>
    <contour>
      <point x="29" y="879" type="curve" smooth="yes"/>
      <point x="29" y="1055"/>
      <point x="166" y="1197"/>
      <point x="310.5" y="1197" type="curve" smooth="yes"/>
      <point x="330" y="1197"/>
      <point x="345" y="1196"/>
      <point x="353.5" y="1193" type="curve" smooth="no"/>
      <point x="353.5" y="1126" type="line" smooth="no"/>
      <point x="336.5" y="1135.5"/>
      <point x="329" y="1141"/>
      <point x="307" y="1141" type="curve" smooth="yes"/>
      <point x="210.5" y="1141"/>
      <point x="177" y="996"/>
      <point x="177" y="878" type="curve" smooth="yes"/>
      <point x="177" y="756.5"/>
      <point x="222" y="624.5"/>
      <point x="309.5" y="624.5" type="curve" smooth="yes"/>
      <point x="408.5" y="624.5"/>
      <point x="448" y="754.5"/>
      <point x="448" y="879" type="curve" smooth="yes"/>
      <point x="448" y="1019.5"/>
      <point x="414.5" y="1124"/>
      <point x="393" y="1180" type="curve" smooth="no"/>
      <point x="1038.5" y="1195" type="line" smooth="no"/>
      <point x="1050" y="1114.5" type="line" smooth="no"/>
      <point x="523" y="1123.5" type="line" smooth="no"/>
      <point x="569" y="1074"/>
      <point x="596" y="930.5"/>
      <point x="596" y="878" type="curve" smooth="yes"/>
      <point x="596" y="698.5"/>
      <point x="447" y="560.5"/>
      <point x="309.5" y="560.5" type="curve" smooth="yes"/>
      <point x="160.5" y="560.5"/>
      <point x="29" y="679.5"/>
    </contour>
    <contour>
      <point x="154.5" y="-26" type="line" smooth="no"/>
      <point x="607.5" y="572" type="line" smooth="no"/>
      <point x="1038.5" y="1195" type="line" smooth="no"/>
      <point x="1195.5" y="1190.5" type="line" smooth="no"/>
      <point x="1194.5" y="1172.5" type="line" smooth="no"/>
      <point x="742.5" y="576.5" type="line" smooth="no"/>
      <point x="328" y="-40.5" type="line" smooth="no"/>
    </contour>
    <contour>
      <point x="754" y="275" type="curve" smooth="yes"/>
      <point x="754" y="451"/>
      <point x="891.5" y="593.5"/>
      <point x="1036" y="593.5" type="curve" smooth="yes"/>
      <point x="1202" y="593.5"/>
      <point x="1321" y="458.5"/>
      <point x="1321" y="272" type="curve" smooth="yes"/>
      <point x="1321" y="96"/>
      <point x="1176" y="-42"/>
      <point x="1038.5" y="-42" type="curve" smooth="yes"/>
      <point x="889.5" y="-42"/>
      <point x="754" y="77.5"/>
    </contour>
    <contour>
      <point x="903" y="275" type="curve" smooth="yes"/>
      <point x="903" y="153.5"/>
      <point x="951" y="22"/>
      <point x="1038.5" y="22" type="curve" smooth="yes"/>
      <point x="1137.5" y="22"/>
      <point x="1175" y="150.5"/>
      <point x="1175" y="277.5" type="curve" smooth="yes"/>
      <point x="1175" y="402"/>
      <point x="1125.5" y="538.5"/>
      <point x="1036" y="538.5" type="curve" smooth="yes"/>
      <point x="936.5" y="538.5"/>
      <point x="903" y="393"/>
    </contour>
    <contour>
      <point x="1423.5" y="274.5" type="curve" smooth="yes"/>
      <point x="1423.5" y="450.5"/>
      <point x="1562.5" y="591.5"/>
      <point x="1707" y="591.5" type="curve" smooth="yes"/>
      <point x="1873.5" y="591.5"/>
      <point x="1990.5" y="458.5"/>
      <point x="1990.5" y="272" type="curve" smooth="yes"/>
      <point x="1990.5" y="96"/>
      <point x="1846.5" y="-41"/>
      <point x="1709" y="-41" type="curve" smooth="yes"/>
      <point x="1560" y="-41"/>
      <point x="1423.5" y="77"/>
    </contour>
    <contour>
      <point x="1574" y="274.5" type="curve" smooth="yes"/>
      <point x="1574" y="153"/>
      <point x="1621.5" y="23"/>
      <point x="1709" y="23" type="curve" smooth="yes"/>
      <point x="1808" y="23"/>
      <point x="1845.5" y="150"/>
      <point x="1845.5" y="277" type="curve" smooth="yes"/>
      <point x="1845.5" y="401.5"/>
      <point x="1796.5" y="537"/>
      <point x="1707" y="537" type="curve" smooth="yes"/>
      <point x="1607.5" y="537"/>
      <point x="1574" y="392.5"/>
    </contour>
  </outline>
</glyph>
<glyph name="six.osf" format="1">
  <advance width="996"/>
  <outline>
    <contour>
      <point x="99.5" y="520" type="curve" smooth="yes"/>
      <point x="99.5" y="911.5"/>
      <point x="398" y="1367.5"/>
      <point x="803" y="1502.5" type="curve" smooth="no"/>
      <point x="837.5" y="1439.5" type="line" smooth="no"/>
      <point x="507.5" y="1297.5"/>
      <point x="360.5" y="1002"/>
      <point x="311.5" y="757" type="curve" smooth="no"/>
      <point x="322.5" y="757" type="line" smooth="no"/>
      <point x="395.154" y="827.788"/>
      <point x="502.234" y="877.131"/>
      <point x="609.61" y="877.131" type="curve" smooth="yes"/>
      <point x="831.805" y="877.131"/>
      <point x="956.442" y="686.806"/>
      <point x="956.442" y="459.091" type="curve" smooth="yes"/>
      <point x="956.442" y="202.088"/>
      <point x="755.119" y="-26.5"/>
      <point x="515.5" y="-26.5" type="curve" smooth="yes"/>
      <point x="200.5" y="-26.5"/>
      <point x="99.5" y="231.5"/>
    </contour>
    <contour>
      <point x="294.5" y="501.5" type="curve" smooth="yes"/>
      <point x="294.5" y="245"/>
      <point x="393" y="59.5"/>
      <point x="541.5" y="59.5" type="curve" smooth="yes"/>
      <point x="693.5" y="59.5"/>
      <point x="768" y="218"/>
      <point x="768" y="404" type="curve" smooth="yes"/>
      <point x="768" y="595"/>
      <point x="701" y="763.5"/>
      <point x="515" y="763.5" type="curve" smooth="yes"/>
      <point x="423.5" y="763.5"/>
      <point x="344.5" y="714"/>
      <point x="307" y="670.5" type="curve" smooth="no"/>
      <point x="301" y="628"/>
      <point x="294.5" y="544.5"/>
    </contour>
  </outline>
</glyph>
<glyph name="sterling.osf" format="1">
  <advance width="1585"/>
  <outline>
    <contour>
      <point x="156" y="0" type="line" smooth="no"/>
      <point x="163" y="71" type="line" smooth="no"/>
      <point x="371" y="114" type="line" smooth="no"/>
      <point x="408" y="193"/>
      <point x="420" y="290"/>
      <point x="420" y="395" type="curve" smooth="yes"/>
      <point x="420" y="509" type="line" smooth="no"/>
      <point x="201" y="497" type="line" smooth="no"/>
      <point x="215" y="590" type="line" smooth="no"/>
      <point x="425" y="602" type="line" smooth="no"/>
      <point x="428" y="747" type="line" smooth="no"/>
      <point x="433.5" y="1008"/>
      <point x="562" y="1211"/>
      <point x="842" y="1211" type="curve" smooth="yes"/>
      <point x="993" y="1211"/>
      <point x="1149" y="1129"/>
      <point x="1149" y="1034" type="curve" smooth="yes"/>
      <point x="1149" y="947.5"/>
      <point x="1075.5" y="900.5"/>
      <point x="998" y="886" type="curve" smooth="no"/>
      <point x="978" y="1024.5"/>
      <point x="921" y="1126"/>
      <point x="820" y="1126" type="curve" smooth="yes"/>
      <point x="631" y="1126"/>
      <point x="610" y="1003"/>
      <point x="610" y="684" type="curve" smooth="yes"/>
      <point x="610" y="612" type="line" smooth="no"/>
      <point x="928" y="629" type="line" smooth="no"/>
      <point x="915" y="537" type="line" smooth="no"/>
      <point x="607" y="516" type="line" smooth="no"/>
      <point x="607" y="462" type="line" smooth="yes"/>
      <point x="607" y="297"/>
      <point x="585" y="167"/>
      <point x="529" y="96" type="curve" smooth="no"/>
      <point x="1047.5" y="96" type="line" smooth="no"/>
      <point x="1169" y="390" type="line" smooth="no"/>
      <point x="1245" y="371" type="line" smooth="no"/>
      <point x="1211" y="0" type="line" smooth="no"/>
    </contour>
  </outline>
</glyph>
<glyph name="three.osf" format="1">
  <advance width="885"/>
  <outline>
    <contour>
      <point x="-21.5" y="-167" type="curve" smooth="yes"/>
      <point x="-21.5" y="-107"/>
      <point x="38" y="-36.5"/>
      <point x="119" y="-29.5" type="curve" smooth="no"/>
      <point x="141" y="-147.5"/>
      <point x="210.5" y="-271"/>
      <point x="349.5" y="-271" type="curve" smooth="yes"/>
      <point x="554.5" y="-271"/>
      <point x="637.5" y="-122.5"/>
      <point x="637.5" y="29" type="curve" smooth="yes"/>
      <point x="637.5" y="233"/>
      <point x="480.5" y="368"/>
      <point x="246" y="376.5" type="curve" smooth="no"/>
      <point x="239" y="438.5" type="line" smooth="no"/>
      <point x="385.5" y="495.5"/>
      <point x="582" y="618"/>
      <point x="582" y="834" type="curve" smooth="yes"/>
      <point x="582" y="957"/>
      <point x="533" y="1079.5"/>
      <point x="392" y="1079.5" type="curve" smooth="yes"/>
      <point x="261" y="1079.5"/>
      <point x="186.5" y="971.5"/>
      <point x="141.5" y="846.5" type="curve" smooth="no"/>
      <point x="59.5" y="874" type="line" smooth="no"/>
      <point x="95.5" y="1019.5"/>
      <point x="241.5" y="1208"/>
      <point x="461.5" y="1208" type="curve" smooth="yes"/>
      <point x="642.5" y="1208"/>
      <point x="771" y="1071.5"/>
      <point x="771" y="890.5" type="curve" smooth="yes"/>
      <point x="771" y="695"/>
      <point x="592" y="538"/>
      <point x="468.5" y="486" type="curve" smooth="no"/>
      <point x="468.5" y="476" type="line" smooth="no"/>
      <point x="648.329" y="459.721"/>
      <point x="822.171" y="296.304"/>
      <point x="822.171" y="92.228" type="curve" smooth="yes"/>
      <point x="822.171" y="-141.919"/>
      <point x="592.016" y="-363.5"/>
      <point x="317" y="-363.5" type="curve" smooth="yes"/>
      <point x="131" y="-363.5"/>
      <point x="-21.5" y="-277"/>
    </contour>
  </outline>
</glyph>
<glyph name="uni1E9E.alt2" format="1">
  <advance width="1436"/>
  <outline>
    <contour>
      <point x="91" y="0" type="line" smooth="no"/>
      <point x="99.5" y="71.5" type="line" smooth="no"/>
      <point x="307.5" y="119.5" type="line" smooth="no"/>
      <point x="307.5" y="943.5" type="line" smooth="yes"/>
      <point x="307.5" y="1369"/>
      <point x="516.5" y="1571"/>
      <point x="905" y="1571" type="curve" smooth="yes"/>
      <point x="1128.5" y="1571"/>
      <point x="1343.5" y="1534"/>
      <point x="1443.5" y="1441" type="curve" smooth="no"/>
      <point x="1411" y="1074.5" type="line" smooth="no"/>
      <point x="1321" y="1085.5" type="line" smooth="no"/>
      <point x="1288.5" y="1348.5" type="line" smooth="no"/>
      <point x="1232.5" y="1405.5"/>
      <point x="1174.5" y="1442.5"/>
      <point x="1081.5" y="1442.5" type="curve" smooth="yes"/>
      <point x="946" y="1442.5"/>
      <point x="825" y="1290"/>
      <point x="870" y="1122" type="curve" smooth="yes"/>
      <point x="950" y="787.801"/>
      <point x="1553" y="784.13"/>
      <point x="1553" y="389" type="curve" smooth="yes"/>
      <point x="1553" y="128.5"/>
      <point x="1346" y="-31"/>
      <point x="1048.5" y="-31" type="curve" smooth="yes"/>
      <point x="869" y="-31"/>
      <point x="710" y="42.5"/>
      <point x="637" y="147.5" type="curve" smooth="no"/>
      <point x="663.5" y="489" type="line" smooth="no"/>
      <point x="757" y="475" type="line" smooth="no"/>
      <point x="797.5" y="223.5" type="line" smooth="no"/>
      <point x="848" y="134"/>
      <point x="969" y="70.5"/>
      <point x="1095.5" y="70.5" type="curve" smooth="yes"/>
      <point x="1256.5" y="70.5"/>
      <point x="1371" y="154.5"/>
      <point x="1371" y="319" type="curve" smooth="yes"/>
      <point x="1371" y="670.106"/>
      <point x="684" y="656.535"/>
      <point x="684" y="1098.5" type="curve" smooth="yes"/>
      <point x="684" y="1273.5"/>
      <point x="791.5" y="1435"/>
      <point x="965" y="1475.5" type="curve" smooth="no"/>
      <point x="967" y="1479.5" type="line" smooth="no"/>
      <point x="938.5" y="1482"/>
      <point x="891.5" y="1483.5"/>
      <point x="858.5" y="1483.5" type="curve" smooth="yes"/>
      <point x="614" y="1483.5"/>
      <point x="489.5" y="1293"/>
      <point x="489.5" y="972" type="curve" smooth="yes"/>
      <point x="489.5" y="0" type="line" smooth="no"/>
    </contour>
  </outline>
</glyph>
<glyph name="yen.osf" format="1">
  <advance width="1466"/>
  <outline>
    <contour>
      <point x="210" y="1117.5" type="line" smooth="no"/>
      <point x="221.5" y="1185.5" type="line" smooth="no"/>
      <point x="737" y="1185.5" type="line" smooth="no"/>
      <point x="728" y="1117.5" type="line" smooth="no"/>
      <point x="568" y="1076.5" type="line" smooth="no"/>
      <point x="803.5" y="535.5" type="line" smooth="no"/>
      <point x="1037" y="1072.5" type="line" smooth="no"/>
      <point x="856" y="1117.5" type="line" smooth="no"/>
      <point x="863.5" y="1185" type="line" smooth="no"/>
      <point x="1319" y="1185" type="line" smooth="no"/>
      <point x="1310.5" y="1117.5" type="line" smooth="no"/>
      <point x="1156" y="1076" type="line" smooth="no"/>
      <point x="870.5" y="467.5" type="line" smooth="no"/>
      <point x="1281.5" y="467.5" type="line" smooth="no"/>
      <point x="1268.5" y="377.5" type="line" smooth="no"/>
      <point x="853.5" y="377.5" type="line" smooth="no"/>
      <point x="853.5" y="111" type="line" smooth="no"/>
      <point x="1068" y="76.5" type="line" smooth="no"/>
      <point x="1056.5" y="0" type="line" smooth="no"/>
      <point x="463.5" y="0" type="line" smooth="no"/>
      <point x="473" y="69.5" type="line" smooth="no"/>
      <point x="673.5" y="118" type="line" smooth="no"/>
      <point x="673.5" y="377.5" type="line" smooth="no"/>
      <point x="273" y="377.5" type="line" smooth="no"/>
      <point x="286.5" y="467.5" type="line" smooth="no"/>
      <point x="656.5" y="467.5" type="line" smooth="no"/>
      <point x="381" y="1072.5" type="line" smooth="no"/>
    </contour>
    <contour>
      <point x="273" y="648" type="line" smooth="no"/>
      <point x="286.5" y="737" type="line" smooth="no"/>
      <point x="638" y="737" type="line" smooth="no"/>
      <point x="671" y="648" type="line" smooth="no"/>
    </contour>
    <contour>
      <point x="899" y="648" type="line" smooth="no"/>
      <point x="942.5" y="737" type="line" smooth="no"/>
      <point x="1281.5" y="737" type="line" smooth="no"/>
      <point x="1268.5" y="648" type="line" smooth="no"/>
    </contour>
  </outline>
</glyph>
<glyph name="zero.osf" format="1">
  <advance width="1218"/>
  <outline>
    <contour>
      <point x="157.5" y="586.5" type="curve" smooth="yes"/>
      <point x="157.5" y="896.5"/>
      <point x="347" y="1206"/>
      <point x="636.5" y="1204.5" type="curve" smooth="yes"/>
      <point x="942.999" y="1202.86"/>
      <point x="1117.5" y="930.5"/>
      <point x="1117.5" y="593" type="curve" smooth="yes"/>
      <point x="1117.5" y="203.147"/>
      <point x="884" y="-29.9352"/>
      <point x="637.562" y="-29.9352" type="curve" smooth="yes"/>
      <point x="372.75" y="-29.9352"/>
      <point x="157.5" y="202.44"/>
    </contour>
    <contour>
      <point x="352.5" y="590.5" type="curve" smooth="yes"/>
      <point x="352.5" y="218"/>
      <point x="467.322" y="61.5405"/>
      <point x="638.545" y="61.5405" type="curve" smooth="yes"/>
      <point x="805.072" y="61.5405"/>
      <point x="921" y="206.5"/>
      <point x="921" y="589.5" type="curve" smooth="yes"/>
      <point x="921" y="944.5"/>
      <point x="818.964" y="1119.5"/>
      <point x="636.384" y="1119.5" type="curve" smooth="yes"/>
      <point x="442.714" y="1119.5"/>
      <point x="352.5" y="947.5"/>
    </contour>
  </outline>
</glyph>
